<svg width="210" height="195" viewBox="0 0 210 195" fill="none" xmlns="http://www.w3.org/2000/svg">
<path d="M121.373 46.0563C130.883 48.6558 132.377 55.3679 143.938 59.9103C145.305 60.4513 142.578 63.5035 142.392 65.205C142.132 67.6053 137.05 66.5442 134.985 67.5714C132.919 68.5985 130.692 68.7368 128.547 68.7927C116.795 69.0917 99.3173 68.95 90.6729 60.5277C88.5145 58.4229 73.7182 46.3155 77.5336 44.4124C88.4057 38.979 98.7819 47.4838 102.363 47.5133C110.163 47.5719 111.588 43.3817 121.373 46.0563Z" fill="#AD3E3B"/>
<path d="M109.671 58.2565C96.2087 55.9869 85.1544 29.7785 62.243 46.2647C39.3317 62.7509 24.7553 114.03 29.9758 138.647C35.1962 163.265 64.0113 174.861 83.8613 178.765C107.045 183.318 145.115 177.314 161.118 135.604C175.112 99.1143 176.3 64.5475 147.943 56.697C130.673 51.9072 131.718 61.9709 109.671 58.2565Z" fill="#D34D46"/>
<path d="M162.925 65.7953C164.684 80.1028 160.891 98.2012 153.754 116.804C137.78 158.447 99.7679 164.441 76.6198 159.895C61.4059 156.909 40.9245 149.394 29.8698 134.95C30.0298 136.269 30.2372 137.535 30.4889 138.74C35.7013 163.317 64.4723 174.895 84.292 178.791C107.44 183.338 145.452 177.343 161.431 135.703C172.302 107.341 175.426 80.1522 162.925 65.7953Z" fill="#AD3E3B"/>
<path opacity="0.27" d="M62.1088 63.2862C56.6582 67.6118 52.5033 73.8172 49.9624 80.4333C48.4813 84.2881 47.5148 88.467 48.2168 92.2457C48.9188 96.0244 51.6119 99.2631 55.2538 99.4209C56.1862 99.4629 57.175 99.2943 58.0526 98.7736C59.2899 98.0393 60.1543 96.722 60.9647 95.4613C64.7623 89.5282 68.8162 83.3668 74.5317 79.705C77.2584 77.9553 80.2541 76.8576 82.9397 75.0131C85.6253 73.1687 88.0952 70.2414 88.3019 67.0143C88.6192 62.0305 83.339 58.1284 79.3379 57.4301C73.8183 56.4561 66.9018 59.4884 62.1088 63.2862Z" fill="white"/>
<path opacity="0.27" d="M52.0771 103.884C49.4929 103.313 46.4391 105.681 45.5246 108.58C44.6079 111.485 45.5833 114.543 47.5072 116.332C48.526 117.277 49.9369 117.937 51.3684 117.437C52.401 117.077 53.2621 116.172 53.9414 115.213C55.2043 113.436 56.0406 111.288 56.0161 109.221C55.9937 107.148 55.032 105.201 53.3645 104.388L52.0771 103.884Z" fill="white"/>
<path d="M102.321 61.2211C102.321 61.2211 109.676 43.7093 115.204 35.5789C120.725 27.4529 133.6 15.8464 133.6 15.8464L138.187 20.6695C138.187 20.6695 127.491 26.9381 120.106 37.1664C114.95 44.3133 105.699 62.3152 105.699 62.3152L102.321 61.2211Z" fill="#60443E"/>
<path d="M120.701 38.8293C120.701 38.8293 140.997 25.8472 155.77 29.2086C175.542 33.7153 188.878 44.0486 188.878 44.0486C188.878 44.0486 169.168 62.2966 152.429 61.1562C135.694 60.0172 116.985 44.5692 116.985 44.5692L120.701 38.8293Z" fill="#436B49"/>
<path opacity="0.27" d="M146.55 38.1489C146.264 38.3702 145.974 38.6248 145.839 38.9704C145.665 39.4306 145.807 39.9491 146.023 40.3905C146.749 41.8544 148.239 42.7683 149.776 43.1874C151.311 43.613 152.928 43.6226 154.517 43.7292C158.226 43.9894 161.894 44.8295 165.357 46.2048C166.583 46.6921 167.818 47.2585 169.134 47.2696C173.236 47.31 172.673 42.7475 171.176 40.1766C169.782 37.7797 167.708 37.3325 165.196 36.8352C159.282 35.6818 151.857 34.0534 146.55 38.1489Z" fill="white"/>
</svg>
