<svg width="594" height="544" viewBox="0 0 594 544" fill="none" xmlns="http://www.w3.org/2000/svg">
<path d="M280.304 75.0788C276.339 60.3653 272.725 41.6618 282.746 30.177C286.619 25.7354 292.031 22.9331 297.476 20.6914C313.813 13.9828 331.847 11.4484 349.396 13.4141C362.746 14.903 376.506 19.4283 385.231 29.6417C391.772 37.3038 394.792 47.3665 396.506 57.2954C398.046 66.2457 398.656 75.3549 398.33 84.439C398.146 89.5415 397.828 95.1877 401.023 99.1609C405.565 104.807 415.235 103.561 420.154 98.2325C425.064 92.9041 426.176 85.0915 425.925 77.856C425.072 53.0964 410.492 29.6919 389.689 16.2497C368.886 2.80762 342.546 -0.998402 318.271 3.94515C310.776 5.46753 303.072 8.01049 297.895 13.6399C291.688 20.3903 292.349 33.1632 293.754 39.7379C296.715 53.5731 306 68.086 311.019 81.3106C311.671 83.0338 302.094 83.0254 300.964 81.5783L280.304 75.0788Z" fill="#45B5AC"/>
<path d="M262.946 77.0112C262.946 77.0112 365.715 58.1068 418.857 76.1496C454.892 88.3872 492.291 122.047 502.136 162.156C518.179 227.468 510.091 478.092 510.091 478.092H370.902L262.946 77.0112Z" fill="#45B5AC"/>
<path d="M146.367 478.092C146.367 478.092 143.933 237.664 148.049 189.994C152.156 142.323 196.614 76.1497 278.915 76.1497C398.941 76.1497 408.911 174.402 408.911 174.402C414.842 250.596 410.86 478.083 410.86 478.083H146.367V478.092Z" fill="#4FD3CC"/>
<path d="M150.156 304.75C117.074 319.79 126.626 340.844 126.626 340.844C126.585 340.844 128.391 340.869 131.729 340.928L137.124 478.101H410.868L412.173 303.755C412.173 303.746 171.445 295.072 150.156 304.75Z" fill="#5BEFE4"/>
<path d="M131.721 340.927H379.25C398.146 341.813 402.847 342.809 402.847 342.809L402.311 359.889C402.311 359.889 394.582 352.487 365.716 350.404C313.202 346.623 131.921 345.878 131.921 345.878L131.721 340.927Z" fill="#45B5AC"/>
<path d="M337.644 192.954H204.795V227.4H337.644V192.954Z" fill="#45B5AC"/>
<path d="M226.351 210.002C226.351 214.711 223.884 218.526 220.839 218.526C217.794 218.526 215.327 214.711 215.327 210.002C215.327 205.293 217.794 201.478 220.839 201.478C223.884 201.478 226.351 205.293 226.351 210.002Z" fill="white"/>
<path d="M322.103 218.701C325.147 218.701 327.615 214.885 327.615 210.177C327.615 205.47 325.147 201.654 322.103 201.654C319.058 201.654 316.59 205.47 316.59 210.177C316.59 214.885 319.058 218.701 322.103 218.701Z" fill="white"/>
<path d="M134.506 341.964L111.763 402.885L135.1 411.4L151.687 342.508L134.506 341.964Z" fill="#45B5AC"/>
<path d="M291.169 17.5713C294.591 13.7904 298.346 10.1769 302.939 7.95185C307.481 5.75192 319.25 2.39764 324.269 1.8623C337.477 0.457023 347.941 0.624313 359.785 2.79914C362.613 3.31776 375.745 7.96021 378.932 10.3525C380.605 11.6072 358.012 14.1083 355.938 13.8323C337.493 11.4149 326.494 12.8954 315.461 16.8436C301.316 21.9042 291.103 23.6022 277.568 39.7294C276.063 34.3593 287.748 21.3605 291.169 17.5713Z" fill="#4FD3CC"/>
<path opacity="0.34" d="M187.714 127.676C202.553 106.58 225.94 91.2224 251.52 87.935C260.754 86.7472 270.993 87.3913 278.069 93.4557C280.57 95.5971 282.645 98.6837 282.252 101.954C281.658 106.923 276.087 109.432 271.327 110.963C248.985 118.132 224.293 125.961 212.189 146.062C206.375 155.714 194.974 217.337 173.803 201.863C154.631 187.843 178.295 141.059 187.714 127.676Z" fill="white"/>
<path opacity="0.34" d="M139.776 323.863C139.266 325.185 138.973 326.857 139.952 327.878C140.73 328.698 142.001 328.748 143.13 328.698C149.797 328.438 156.321 326.832 162.913 325.787C184.076 322.416 205.707 324.758 226.936 327.669C232.248 328.397 239.182 328.271 241.106 323.269C242.645 319.271 239.366 314.762 235.36 313.231C231.353 311.701 226.903 312.253 222.629 312.479C201.265 313.633 150.633 295.607 139.776 323.863Z" fill="white"/>
<path d="M288.174 439.386C286.677 439.37 203.631 450.603 163.891 441.336C99.6316 426.354 35.7387 367.835 35.7387 367.835L17.222 373.829C17.222 373.829 13.7511 431.632 58.3631 468.435C102.975 505.237 134.341 514.472 194.269 509.48C259.69 504.027 296.238 455.92 296.238 455.92L288.174 439.386Z" fill="#E5CA2E"/>
<path d="M18.2728 373.844C20.7565 393.85 29.3939 426.799 58.5064 450.817C103.118 487.62 134.484 496.854 194.412 491.863C244.772 487.667 278.024 458.197 290.666 444.846L296.238 456.27C296.238 456.27 259.69 504.377 194.269 509.83C134.341 514.821 102.975 505.587 58.3631 468.784C13.7511 431.982 17.222 374.179 17.222 374.179L18.2728 373.844Z" fill="#E0A32B"/>
<path d="M35.7382 367.834L24.028 334.916L9.55533 334.797L17.2215 373.836L35.7382 367.834Z" fill="#E5CA2E"/>
<path d="M25.007 321.479C29.8392 326.088 32.514 334.98 32.514 334.98L3.00353 343.029L0.1297 328.126L25.007 321.479Z" fill="#E5CA2E"/>
<path d="M296.246 455.92L288.174 439.385L274.577 447.505L287.282 456.955L296.246 455.92Z" fill="#60443E"/>
<path d="M25.3253 330.491C24.2824 331.382 22.9689 331.876 21.6792 332.346C18.6303 333.468 15.5813 334.591 12.4846 335.554C10.4466 336.183 7.73997 336.517 6.63342 334.694C5.90899 333.492 6.34684 331.86 7.29417 330.825C8.24149 329.79 9.58685 329.225 10.8924 328.716C14.1802 327.442 19.5856 324.608 23.1122 324.64C26.4318 324.672 28.3742 327.888 25.3253 330.491Z" fill="#FFF431"/>
<path d="M263.177 451.566C241.818 455.785 220.285 459.591 198.52 460.363C176.763 461.127 154.656 458.771 134.324 450.977C132.533 450.292 130.686 449.52 129.405 448.087C128.123 446.654 127.574 444.378 128.656 442.793C129.787 441.13 132.103 440.867 134.109 440.899C141.441 441.026 148.574 443.08 155.715 444.72C185.17 451.487 215.699 451.351 245.679 448.995C249.612 448.684 253.688 447.912 257.612 447.825C258.934 447.793 259.65 447.307 260.98 447.968C261.37 448.167 264.347 451.335 263.177 451.566Z" fill="#FFF431"/>
<path d="M117.113 437.643C115.943 439.02 113.921 439.418 112.146 439.092C110.37 438.766 108.77 437.834 107.226 436.903C96.8847 430.678 86.9099 423.831 77.3729 416.436C75.1997 414.748 72.9945 412.973 71.6333 410.577C71.2591 409.924 70.9486 409.199 70.9884 408.443C71.068 406.716 72.9309 405.585 74.6424 405.386C78.1133 404.98 81.3533 406.994 84.267 408.929C94.6398 415.799 105.013 422.669 115.386 429.539C116.03 429.961 116.699 430.423 117.041 431.115C117.758 432.564 118.267 436.282 117.113 437.643Z" fill="#FFF431"/>
<path d="M18.8458 338.714C18.8458 338.714 17.1581 334.972 18.7662 348.649C20.3742 362.325 21.0429 371.313 21.0429 371.313C21.0429 371.313 20.0638 371.114 19.3791 376.917C18.7025 382.713 17.7074 383.644 17.7074 383.644L17.2138 373.845L10.7497 340.927L18.8458 338.714Z" fill="#E0A32B"/>
<path d="M3.00353 343.037L6.21967 339.375L4.73101 326.909L0.1297 328.135L3.00353 343.037Z" fill="#E0A32B"/>
<path d="M514.3 312.681C510.912 290.967 501.423 291.256 491.436 279.442C481.449 267.633 484.579 211.318 484.579 211.318L451.45 211.429V211.318H417.824C417.824 211.318 421.139 267.621 411.188 279.46C401.238 291.306 391.749 291.053 388.428 312.773C385.114 334.493 380.692 481.791 388.428 497.295C396.165 512.8 507.216 512.726 514.903 497.197C522.596 481.667 517.689 334.389 514.3 312.681Z" fill="#88B4D3"/>
<path d="M502.235 315.484C499.387 295.242 490.249 296.505 481.855 285.497C473.46 274.483 476.049 220.99 476.049 220.99L449.427 221.088V220.984H426.427C426.427 220.984 429.213 273.473 420.856 284.511C412.492 295.556 399.258 295.316 396.472 315.57C393.686 335.824 389.966 473.142 396.472 487.599C402.972 502.057 496.288 501.989 502.751 487.507C509.208 473.031 505.082 335.719 502.235 315.484Z" fill="#9ED2F2"/>
<path d="M492.598 238.348H409.011V213.123C409.011 208.085 413.089 204 418.119 204H483.49C488.521 204 492.598 208.085 492.598 213.123V238.348Z" fill="#EAC113"/>
<path d="M483.49 204H466.345C471.375 204 475.453 208.085 475.453 213.123V238.348H492.598V213.123C492.598 208.085 488.521 204 483.49 204Z" fill="#D8B213"/>
<path d="M492.604 242.648H409.011V251.95H492.604V242.648Z" fill="#EAC113"/>
<path opacity="0.27" d="M423.279 207.025C420.905 207.13 418.218 207.555 416.883 209.526C416.33 210.339 416.09 211.331 415.936 212.304C415.469 215.292 415.752 218.396 416.754 221.254C417.332 222.899 418.544 224.704 420.278 224.581C421.852 224.464 422.824 222.788 423.174 221.248C423.519 219.708 423.562 218.02 424.478 216.733C425.413 215.421 427.061 214.836 428.623 214.435C432.313 213.505 436.162 213.21 439.951 213.573C441.482 213.721 443.056 213.967 444.532 213.53C446.008 213.093 447.343 211.707 447.121 210.179C446.961 209.095 446.057 208.232 445.043 207.82C444.028 207.407 442.909 207.358 441.814 207.314C435.689 207.074 429.404 206.754 423.279 207.025Z" fill="white"/>
<path d="M492.598 242.648H475.687V251.95H492.598V242.648Z" fill="#D8B213"/>
<path d="M394.025 327.342C392.37 386.902 391.897 474.318 396.466 486.854C402.973 504.699 496.282 504.619 502.745 486.743C507.284 474.195 506.601 386.89 504.805 327.342H394.025Z" fill="#EAC113"/>
<path d="M504.996 327.342H481.073C482.285 383.594 482.254 449.974 478.343 460.791C473.712 473.604 424.447 477.275 394.529 471.75C395.064 479.123 395.765 484.409 396.656 486.854C403.163 504.699 496.472 504.619 502.936 486.743C507.468 474.195 506.785 386.89 504.996 327.342Z" fill="#E8AC15"/>
<path d="M394.025 326.639C393.09 336.588 422.701 334.376 449.513 334.752C476.326 335.128 505.162 333.951 504.805 326.639C504.449 319.327 476.676 320.861 449.415 320.11C422.153 319.358 394.646 320.03 394.025 326.639Z" fill="#FFD217"/>
<path opacity="0.46" d="M407.031 315.385C406.004 321.015 405.598 326.756 405.82 332.473C405.93 335.35 406.25 338.362 407.843 340.758C409.436 343.154 412.689 344.676 415.284 343.438C417.455 342.403 418.476 339.889 418.968 337.53C420.259 331.37 419.3 324.804 421.36 318.859C423.709 312.071 440.738 293.665 424.318 295.162C414.011 296.098 408.765 305.886 407.031 315.385Z" fill="white"/>
<path d="M479.981 524.321C479.095 535.07 501.277 543.091 532.149 543.208C567.467 543.337 593.511 538.329 593.812 527.303C594.113 516.276 574.896 493.423 537.001 493.355C499.107 493.294 481.119 510.591 479.981 524.321Z" fill="#F8AE63"/>
<path d="M593.812 527.303C594.015 519.948 585.528 507.332 568.604 499.725C578.733 506.956 583.776 515.796 583.622 521.488C583.321 532.514 557.277 537.522 521.959 537.393C506.166 537.337 492.649 535.206 483.326 531.701C490.577 538.545 508.897 543.122 532.149 543.208C567.467 543.337 593.511 538.329 593.812 527.303Z" fill="#E59D5C"/>
<path d="M493.947 513.664C492.465 513.935 491.001 514.601 490.054 515.771C489.107 516.948 488.787 518.685 489.525 520.003C490.435 521.617 492.551 522.104 494.402 522.011C496.247 521.919 498.147 521.364 499.469 520.071C500.791 518.777 501.382 516.634 500.521 514.995C499.66 513.356 497.188 512.697 495.835 513.96L493.947 513.664Z" fill="#8A6D51"/>
<path d="M527.272 498.129C525.538 497.938 523.749 498.326 522.242 499.213C521.479 499.663 520.729 500.347 520.668 501.234C520.563 502.761 522.377 503.587 523.853 503.975C526.061 504.554 528.269 505.139 530.476 505.718C532.309 506.199 534.572 506.568 535.833 505.152C537.13 503.692 536.325 501.203 534.72 500.094C533.115 498.985 531.048 498.868 529.099 498.794L527.272 498.129Z" fill="#8A6D51"/>
<path d="M542.068 523.878C540.795 524.66 539.86 526.212 540.273 527.648C540.525 528.529 541.238 529.219 542.05 529.631C542.868 530.044 543.784 530.204 544.688 530.309C548.409 530.74 552.56 530.112 555.093 527.34C555.407 526.995 555.702 526.607 555.776 526.145C555.923 525.208 555.136 524.395 554.343 523.878C552.412 522.615 550.057 522.091 547.775 522.344C545.955 522.553 543.624 522.923 542.068 523.878Z" fill="#8A6D51"/>
<path d="M566.821 507.862C566.932 508.952 567.602 509.888 568.254 510.763C569.109 511.921 569.964 513.073 570.818 514.231C571.427 515.05 572.134 515.938 573.143 516.11C573.912 516.239 574.693 515.919 575.332 515.482C576.341 514.798 577.183 513.683 577.085 512.463C577.036 511.847 576.753 511.281 576.464 510.732C575.228 508.367 573.967 505.884 571.483 504.603C569.361 503.507 566.575 505.478 566.821 507.862Z" fill="#8A6D51"/>
<path d="M507.667 526.065C507.446 527.204 507.47 528.479 508.171 529.403C508.737 530.155 509.684 530.555 510.625 530.611C511.566 530.666 512.495 530.408 513.362 530.038C515.822 528.991 517.906 526.946 518.687 524.383C518.946 523.539 519.056 522.615 518.767 521.777C517.906 519.301 514.284 518.956 512.181 519.899C509.862 520.946 508.128 523.638 507.667 526.065Z" fill="#8A6D51"/>
<path opacity="0.21" d="M498.916 508.078C495.798 510.702 492.963 514.108 492.557 518.168C492.157 522.227 495.171 526.767 499.242 526.668C501.554 526.613 503.608 525.153 505.164 523.441C506.714 521.728 507.919 519.714 509.493 518.02C512.845 514.428 517.611 512.55 522.309 511.127C524.271 510.529 526.307 509.969 527.936 508.724C529.566 507.474 530.71 505.336 530.144 503.365C528.785 498.603 520.157 498.653 516.424 499.527C510.041 501.018 503.953 503.846 498.916 508.078Z" fill="white"/>
<path opacity="0.57" d="M537.505 532.631C537.911 534.282 538.416 535.932 538.428 537.639C538.44 539.339 537.881 541.144 536.528 542.173C535.199 543.183 533.41 543.263 531.743 543.281C517.734 543.423 504.728 541.797 490.743 536.585C489.113 535.976 479.36 530.616 480.731 525.288C481.851 520.927 484.618 517.169 487.933 514.12C495.269 507.369 504.684 503.217 514.352 500.784C520.305 499.287 526.393 498.406 532.493 497.765C536.731 497.316 543.827 495.412 541.22 501.936C537.173 512.05 534.836 521.721 537.505 532.631Z" fill="#C1834E"/>
<path opacity="0.57" d="M488.751 534.756C490.393 534.849 491.998 534.288 493.547 533.721C498.996 531.738 504.414 529.668 509.795 527.506C512.027 526.607 514.26 525.695 516.43 524.648C525.563 520.256 533.576 513.554 539.516 505.336C540.144 504.468 540.771 503.501 540.728 502.429C540.666 501.049 539.436 499.946 538.108 499.577C536.78 499.207 535.365 499.417 534.006 499.644C529.277 500.433 524.585 501.425 519.893 502.416C515.631 503.316 511.357 504.221 507.273 505.737C503.719 507.055 500.349 508.829 496.985 510.591C494.002 512.155 490.964 513.769 488.64 516.209C487.072 517.86 485.885 519.831 484.876 521.87C484.144 523.342 483.493 524.894 483.351 526.533C483.074 529.81 485.067 534.541 488.751 534.756Z" fill="#C1834E"/>
<path d="M441.084 531.387C444.467 541.625 468.014 540.313 496.468 528.319C529.019 514.595 551.035 499.786 547.001 489.517C542.972 479.249 516.363 465.752 481.457 480.542C446.558 495.339 436.767 518.309 441.084 531.387Z" fill="#F8AE63"/>
<path d="M547 489.517C544.313 482.667 531.571 474.382 513.03 474.019C525.175 476.705 533.268 482.865 535.353 488.162C539.381 498.431 517.371 513.239 484.821 526.964C470.264 533.099 456.993 536.438 447.043 536.869C456.385 540.331 475.037 537.356 496.468 528.319C529.019 514.595 551.035 499.786 547 489.517Z" fill="#E59D5C"/>
<path d="M449.774 516.11C448.519 516.942 447.425 518.124 447.013 519.578C446.601 521.032 446.982 522.763 448.181 523.681C449.651 524.808 451.785 524.426 453.452 523.619C455.112 522.812 456.643 521.556 457.357 519.849C458.07 518.143 457.775 515.938 456.342 514.767C454.909 513.597 452.375 513.96 451.625 515.654L449.774 516.11Z" fill="#8A6D51"/>
<path d="M474.373 488.747C472.706 489.252 471.206 490.312 470.172 491.716C469.643 492.431 469.225 493.349 469.514 494.193C470.012 495.64 472.005 495.69 473.518 495.474C475.775 495.141 478.038 494.815 480.295 494.482C482.17 494.205 484.39 493.657 485.005 491.864C485.633 490.016 483.911 488.039 482.004 487.645C480.092 487.25 478.149 487.959 476.322 488.649L474.373 488.747Z" fill="#8A6D51"/>
<path d="M498.049 506.648C497.182 507.868 496.93 509.66 497.871 510.825C498.449 511.533 499.371 511.897 500.281 511.952C501.191 512.014 502.102 511.804 502.975 511.545C506.566 510.486 510.145 508.274 511.388 504.739C511.541 504.301 511.658 503.827 511.548 503.371C511.32 502.453 510.275 502.016 509.346 501.85C507.077 501.443 504.703 501.887 502.704 503.014C501.105 503.901 499.107 505.151 498.049 506.648Z" fill="#8A6D51"/>
<path d="M514.567 482.205C515.096 483.166 516.08 483.764 517.021 484.318C518.257 485.045 519.499 485.778 520.735 486.505C521.615 487.023 522.611 487.558 523.607 487.324C524.364 487.146 524.954 486.542 525.378 485.883C526.036 484.854 526.381 483.499 525.815 482.421C525.526 481.873 525.046 481.46 524.566 481.066C522.5 479.372 520.372 477.585 517.587 477.376C515.207 477.204 513.417 480.105 514.567 482.205Z" fill="#8A6D51"/>
<path d="M467.239 522.141C467.485 523.274 468.002 524.438 469.01 525.017C469.828 525.485 470.855 525.479 471.741 525.165C472.626 524.851 473.383 524.247 474.035 523.57C475.892 521.642 477.011 518.937 476.728 516.282C476.636 515.402 476.378 514.508 475.787 513.855C474.028 511.915 470.56 513.018 468.992 514.706C467.264 516.566 466.723 519.726 467.239 522.141Z" fill="#8A6D51"/>
<path opacity="0.21" d="M452.166 509.02C450.321 512.654 449.042 516.898 450.26 520.792C451.477 524.685 456.022 527.678 459.73 525.991C461.833 525.036 463.156 522.886 463.918 520.699C464.675 518.512 464.994 516.19 465.788 514.016C467.467 509.396 471.126 505.798 474.889 502.65C476.464 501.332 478.118 500.02 479.126 498.234C480.141 496.447 480.356 494.033 479.065 492.437C475.959 488.587 468.032 492.012 464.939 494.279C459.644 498.16 455.143 503.149 452.166 509.02Z" fill="white"/>
</svg>
