<svg width="174" height="161" viewBox="0 0 174 161" fill="none" xmlns="http://www.w3.org/2000/svg">
<path d="M60.3977 1.58737C53.8168 -0.781764 46.4461 -0.51853 39.9968 2.5087C26.3084 8.95802 3.14353 21.7251 0.247915 34.4921C-3.83227 52.9187 43.1557 76.2152 89.2222 114.911C135.289 153.607 140.29 169.138 148.582 155.845C156.874 142.551 189.779 107.672 163.718 66.7387C143.186 34.3605 84.3523 10.2742 60.3977 1.58737Z" fill="#ECB579"/>
<path d="M148.582 155.845C153.189 148.474 165.561 134.259 170.957 116.096C163.718 123.071 154.636 128.863 143.975 125.835C118.836 118.728 70.2688 58.5782 33.9421 35.9398C22.0964 28.4375 12.4882 25.9368 5.11754 25.9368C2.7484 28.8324 1.03736 31.728 0.379263 34.6236C-3.70092 53.0503 43.287 76.3468 89.3536 115.043C135.157 153.607 140.29 169.138 148.582 155.845Z" fill="#DFA164"/>
<path d="M57.5023 82.9263C62.5038 81.4785 67.9001 81.4785 73.1649 81.3469C74.4811 81.3469 75.7973 81.3469 77.1135 81.3469C98.4357 80.8204 115.809 74.1078 126.207 62.2621C128.445 59.6298 130.419 56.8658 132.393 54.1018C133.183 52.9172 133.973 51.7326 134.894 50.5481C136.737 47.9157 138.843 45.4149 140.949 42.9142C140.027 42.2561 139.106 41.598 138.185 40.9399C136.079 43.4406 134.104 45.9414 132.13 48.5738C131.34 49.7583 130.419 50.9429 129.629 52.1275C127.787 54.7599 125.812 57.5239 123.707 60.0246C113.967 71.2122 97.3828 77.5299 77.1135 78.0564C75.7973 78.0564 74.6127 78.0564 73.2965 78.0564C67.7685 78.0564 62.2405 78.188 56.7125 79.7674C53.6853 80.6888 50.9213 81.8733 48.2889 83.4528C49.3419 84.1109 50.2632 84.9006 51.3162 85.5587C53.1588 84.5057 55.2647 83.5844 57.5023 82.9263Z" fill="#F2D0A4"/>
<path d="M32.8893 52.127C35.2584 52.7851 37.6276 53.3116 39.8651 53.9697C51.3159 56.8653 64.741 59.2345 77.3764 55.0227C86.853 51.8638 94.7501 45.4145 101.858 38.7019C106.333 34.6217 110.544 30.2783 114.756 26.0665C113.703 25.54 112.782 24.8819 111.729 24.3555C107.78 28.4357 103.7 32.3842 99.62 36.2012C92.7758 42.5189 85.2736 48.8366 76.3235 51.7322C64.6094 55.5491 51.7108 53.3116 40.6548 50.5476C38.2857 50.0211 36.0481 49.363 33.679 48.705C24.0708 46.2042 14.0678 43.5718 3.93314 43.5718C3.27505 43.5718 2.61696 43.5718 1.95886 43.5718C2.61696 44.6248 3.27505 45.8093 4.06476 46.8623C13.8046 47.1255 23.5443 49.7579 32.8893 52.127Z" fill="#F2D0A4"/>
<path d="M39.6013 70.2903C48.683 67.3947 58.2911 67.5263 65.7934 67.9212C66.4515 67.9212 67.1096 68.0528 67.8993 68.0528C72.9008 68.3161 78.034 68.5793 83.1671 67.5264C89.6164 66.0786 95.1444 62.3932 100.278 58.8395C108.306 53.1799 116.598 46.8622 122.784 38.307C124.101 36.4643 125.154 34.7533 126.206 32.779C125.285 32.1209 124.364 31.5944 123.311 31.0679C122.39 32.9106 121.337 34.6216 120.02 36.3327C114.229 44.4931 106.2 50.6791 98.3033 56.0755C93.4334 59.4976 88.1686 62.9197 82.2458 64.2359C77.6391 65.2888 72.6376 65.0256 67.8993 64.7624C67.2412 64.7624 66.5831 64.6307 65.7934 64.6307C58.0279 64.2359 47.8932 64.1043 38.4167 67.1315C35.5211 68.0528 32.8887 69.2374 30.3879 70.5536C31.3093 71.3433 32.3622 72.0014 33.4152 72.7911C35.3895 71.8698 37.4954 70.9484 39.6013 70.2903Z" fill="#F2D0A4"/>
<path d="M70.5326 26.7245C64.3465 29.4885 56.581 29.4885 46.8412 26.7245C37.233 23.9605 28.1513 19.4855 20.1226 13.5626C19.0696 14.2207 18.1483 14.8788 17.0953 15.5369C25.6506 21.9862 35.522 26.9878 45.9199 30.015C56.4494 33.0422 65.0046 33.0422 71.9804 29.8834C79.4827 26.4613 84.3526 20.012 88.5644 13.0362C87.5114 12.5097 86.4585 12.1148 85.4055 11.72C81.3253 18.0377 77.1135 23.6973 70.5326 26.7245Z" fill="#F2D0A4"/>
<path d="M27.6244 8.82481C35.5215 13.1682 44.34 16.9852 53.6849 17.9065C57.8967 18.3014 61.4504 18.0381 64.4777 16.8536C68.9527 15.2741 72.7697 11.852 75.5336 7.24539C74.4807 6.85053 73.4277 6.32406 72.3748 5.9292C70.0057 9.61453 66.9784 12.3785 63.4247 13.5631C60.924 14.4844 57.8967 14.7477 54.0798 14.3528C46.051 13.5631 38.2855 10.4042 31.1781 6.7189C29.9935 7.50861 28.809 8.16671 27.6244 8.82481Z" fill="#F2D0A4"/>
<path d="M81.3244 36.0694C67.8992 45.0195 49.7358 46.204 35.2578 39.0966C31.8357 37.3856 28.4136 35.2797 25.2547 33.1738C19.4635 29.4884 13.5407 25.5399 6.56487 24.0921C5.64354 25.0134 4.72221 26.0663 3.9325 27.1193C4.59059 27.2509 5.11706 27.2509 5.77516 27.3825C12.0929 28.6987 17.6209 32.2524 23.4121 35.9378C26.7026 38.0437 30.2563 40.2812 33.81 42.1238C49.341 49.7577 68.8206 48.4416 83.167 38.8334C90.6693 33.8319 96.7238 26.7244 100.541 18.5641C99.4878 18.0376 98.5664 17.6427 97.5135 17.1163C93.9598 24.7502 88.4318 31.4627 81.3244 36.0694Z" fill="#F2D0A4"/>
<path d="M134.631 147.814C138.711 135.179 142.528 123.333 151.215 114.12C153.584 111.619 156.348 109.382 158.98 107.144C160.033 106.223 161.086 105.301 162.271 104.38C166.219 100.958 169.905 97.2726 173.458 93.4556C173.327 92.0078 173.063 90.56 172.8 88.9806C168.983 93.5872 164.64 97.9307 160.033 101.879C158.98 102.801 157.927 103.722 156.874 104.512C154.11 106.749 151.215 109.118 148.714 111.751C139.501 121.49 135.421 134.257 131.34 146.761C130.814 148.472 130.287 150.183 129.629 151.894C130.551 152.816 131.472 153.605 132.393 154.395C133.183 152.158 133.841 149.92 134.631 147.814Z" fill="#F2D0A4"/>
<path d="M151.478 151.5C152.268 150.316 153.189 149.131 154.11 147.815C153.584 144.656 153.321 141.365 153.847 138.207C154.768 131.889 158.059 125.966 161.481 120.57C165.035 114.91 168.983 109.382 173.195 104.249C173.327 102.406 173.458 100.564 173.458 98.5894C168.062 105.039 163.06 111.751 158.585 118.727C154.9 124.518 151.346 130.704 150.425 137.68C149.899 142.418 150.425 147.025 151.478 151.5Z" fill="#F2D0A4"/>
<path d="M123.443 128.993C128.313 122.28 134.236 116.357 140.027 110.566C144.239 106.223 148.714 101.879 152.662 97.1409C158.98 89.6386 163.981 81.7415 167.535 73.4495C166.877 72.1333 166.219 70.9488 165.429 69.6326C162.007 78.3194 156.742 87.0062 150.03 94.9034C146.081 99.51 141.738 103.985 137.526 108.197C131.735 114.12 125.68 120.174 120.679 127.018C118.178 130.44 116.072 133.994 114.493 137.416C115.414 138.206 116.204 139.127 117.125 139.917C118.705 136.232 120.811 132.546 123.443 128.993Z" fill="#F2D0A4"/>
<path d="M102.515 95.1665C104.095 94.3768 105.806 93.5871 107.385 92.6658C116.467 88.1907 125.812 83.5841 133.577 76.8715C141.08 70.4222 147.266 61.9986 151.609 52.2588C150.819 51.4691 149.898 50.6794 148.977 49.8896C144.765 59.6294 138.842 67.9214 131.34 74.3708C123.838 80.8201 114.624 85.2951 105.806 89.7702C104.226 90.5599 102.515 91.3496 100.936 92.2709C93.1703 96.2195 85.2732 100.695 78.6923 106.617C79.6136 107.275 80.4033 108.065 81.3246 108.723C87.6423 103.064 95.1446 98.8519 102.515 95.1665Z" fill="#F2D0A4"/>
<path d="M98.1731 122.412C103.964 117.016 110.677 112.409 117.126 108.066C123.839 103.459 130.815 98.7207 136.869 93.0611C146.477 84.111 153.585 72.9234 160.429 62.1307C159.771 61.2094 158.981 60.288 158.191 59.3667C151.347 70.2911 144.108 81.7419 134.632 90.692C128.709 96.22 121.865 100.958 115.284 105.433C108.703 109.908 101.858 114.515 95.9356 120.175C95.804 120.306 95.6724 120.438 95.5408 120.569C96.3305 121.096 97.2518 121.754 98.1731 122.412C98.0415 122.412 98.0415 122.412 98.1731 122.412Z" fill="#F2D0A4"/>
</svg>
