<svg width="154" height="160" viewBox="0 0 154 160" fill="none" xmlns="http://www.w3.org/2000/svg">
<path d="M73.8599 137.344C78.2287 131.746 86.2837 130.791 91.8812 135.16C96.7961 138.982 98.1614 145.672 95.4309 150.996L119.186 159.188L138.027 83.6897C135.433 83.6897 132.702 82.8706 130.381 81.0957C125.057 76.8635 124.101 69.2181 128.197 63.7571C131.883 58.9787 138.573 57.75 143.761 60.4805L153.727 20.4787L122.19 0L102.667 14.6082C103.895 18.5674 103.349 23.0727 100.619 26.4858C96.3865 31.9468 88.4681 33.039 82.8706 28.9433L30.5816 67.1702C31.6738 67.5798 32.766 68.1259 33.7216 68.8085C38.0904 72.2216 38.9096 78.6383 35.4965 83.1436C32.0833 87.5124 25.6667 88.3316 21.1613 84.9184C18.5674 82.8706 17.2021 79.867 17.2021 76.8635L0 89.4238L41.2305 132.293L71.4025 142.668C71.8121 140.894 72.6312 138.982 73.8599 137.344Z" fill="#EBB64A"/>
<path d="M122.463 0.136658L102.667 14.6083C103.895 18.5675 103.349 23.0728 100.619 26.4859C96.3865 31.9469 88.4681 33.0391 82.8706 28.9434L30.5816 67.1704C31.6738 67.5799 32.766 68.126 33.7216 68.8086C38.0904 72.2218 38.9096 78.6384 35.4965 83.1438C32.0833 87.5126 25.6667 88.3317 21.1613 84.9186C18.5674 82.8707 17.2021 79.8672 17.2021 76.8636L0 89.4239L41.2305 132.293L154 20.6154L122.463 0.136658Z" fill="#EEC94D"/>
<path d="M80.1401 70.4468C77.2731 74.133 72.0852 74.6791 68.399 71.9486C64.7128 69.0816 64.1667 63.8937 66.8972 60.2075C69.7643 56.5213 74.9522 55.9752 78.6384 58.7057C82.3245 61.5727 83.0072 66.7607 80.1401 70.4468Z" fill="#EBB64A"/>
<path d="M134.887 26.6223C133.112 28.9432 129.699 29.3528 127.378 27.578C125.057 25.8032 124.647 22.39 126.422 20.0691C128.197 17.7482 131.61 17.3386 133.931 19.1135C136.252 20.8883 136.661 24.3014 134.887 26.6223Z" fill="#EBB64A"/>
<path d="M57.3406 107.718C54.2005 111.678 48.4665 112.36 44.5072 109.357C40.548 106.217 39.8654 100.483 42.8689 96.5234C46.009 92.5641 51.7431 91.8815 55.7023 94.8851C59.798 97.8886 60.4806 103.623 57.3406 107.718Z" fill="#EBB64A"/>
<path d="M115.363 118.23C112.769 121.643 107.854 122.19 104.441 119.596C101.028 117.002 100.482 112.087 103.076 108.674C105.67 105.26 110.585 104.714 113.998 107.308C117.411 110.039 117.957 114.954 115.363 118.23Z" fill="#CC9431"/>
</svg>
