<svg width="618" height="510" viewBox="0 0 618 510" fill="none" xmlns="http://www.w3.org/2000/svg">
<path opacity="0.25" d="M469.318 271.964C551.095 263.939 583.038 245.829 595.497 229.655L600.087 218.695L594.154 200.959C527.739 142.912 325.84 142.538 325.84 142.538C21.2118 147.94 5.44336 199.96 5.44336 199.96C5.44336 199.96 5.59948 201.365 5.97418 203.925C18.2455 222.129 37.8546 239.397 69.1418 246.922C149.015 266.188 322.124 286.39 469.318 271.964Z" fill="white"/>
<path d="M598.025 208.859C582.444 185.721 554.435 176.229 529.112 167.923C483.462 152.966 435.532 144.879 387.727 140.882C324.902 135.637 262.141 139.508 199.504 145.129C170.403 147.752 141.301 150.874 112.387 155.308C89.0621 158.868 65.5812 163.021 42.9745 169.984C34.8248 172.482 26.6752 175.386 19.0876 179.32C13.8418 182.068 8.43993 185.378 4.78663 190.155C-4.01874 201.677 6.97236 215.759 15.2157 224.096C28.8297 237.898 48.2514 244.923 66.5179 250.2C87.1887 256.195 108.484 259.911 129.748 263.158C137.804 264.376 145.86 265.531 153.916 266.78C194.976 273.213 236.817 275.211 278.315 276.522C326.089 278.021 373.925 277.928 421.699 276.117C458.638 274.711 496.295 273.181 532.703 266.187C551.094 262.659 569.579 256.039 585.629 246.422C592.498 242.3 600.304 236.773 602.865 228.749C605.082 221.629 601.991 214.76 598.025 208.859ZM590.781 228.436C583.693 236.149 573.576 241.02 564.115 245.173C554.997 249.17 545.536 252.885 535.888 255.352C522.867 258.693 509.378 260.411 496.045 261.909C477.248 264.033 458.326 265.375 439.435 266.374C393.441 268.841 347.353 269.403 301.328 268.623C258.206 267.904 214.96 266.218 172.089 261.441C163.908 260.535 155.758 259.474 147.64 258.194C129.561 255.352 111.95 252.729 94.2142 248.233C72.232 242.644 51.0304 236.43 33.607 224.814C23.5215 218.07 19.0251 211.2 19.6496 203.176C20.3678 194.214 27.0499 189.187 36.1675 185.378C55.0272 177.54 73.2937 172.107 93.2775 168.36C119.537 163.427 146.047 159.992 172.588 157.119C201.721 153.965 230.947 151.561 260.174 149.563C292.054 147.377 323.903 146.222 355.846 147.315C407.211 149.063 458.732 155.527 508.473 168.641C525.303 173.075 542.008 178.29 558.151 184.815C567.987 188.812 582.35 197.618 588.845 207.984C592.592 214.042 595.402 223.409 590.781 228.436Z" fill="#D8D8D8"/>
<path opacity="0.6" d="M293.491 492.222C340.88 492.222 379.296 479.836 379.296 464.557C379.296 449.278 340.88 436.892 293.491 436.892C246.102 436.892 207.685 449.278 207.685 464.557C207.685 479.836 246.102 492.222 293.491 492.222Z" fill="#5D7F5E"/>
<path d="M600.336 202.831C593.279 194.089 581.57 188.968 571.547 184.565C542.32 171.7 510.752 163.738 479.808 156.244C447.741 148.469 415.642 141.85 382.668 139.477C322.561 135.136 261.766 139.695 201.908 145.316C163.502 148.938 125.033 153.153 87.1263 160.46C66.518 164.425 45.6911 169.046 26.1444 176.821C17.9011 180.1 8.97081 184.034 2.60097 190.404C-2.27009 195.275 1.00851 212.012 2.0077 217.382C5.72344 237.428 10.6257 257.287 16.5584 276.772C33.3573 332.008 59.024 386.901 100.178 428.274C127.094 455.346 160.723 476.641 196.069 490.786C229.73 504.275 265.981 510.832 302.265 509.739C368.992 507.71 434.97 481.387 488.239 441.732C512.782 423.465 534.733 401.764 552.468 376.816C571.141 350.524 587.315 324.764 595.933 293.727C600.523 277.178 605.238 257.006 607.205 239.926C609.797 218.381 608.454 212.917 600.336 202.831ZM511.22 403.794C490.081 425.401 465.57 443.48 439.279 458.312C410.489 474.549 379.608 487.32 347.415 494.876C314.068 502.714 279.221 504.868 245.279 499.529C209.777 493.971 176.242 480.263 146.641 459.905C120.131 441.669 98.0549 419 80.1319 392.334C64.0512 368.416 51.4364 342.25 41.1947 315.365C27.8305 280.362 17.9011 243.548 12.5929 206.391C12.4368 205.267 12.2494 204.174 12.1245 203.05C12.1245 202.988 12.1245 202.988 12.1245 202.925C12.2182 202.269 12.4055 201.676 12.6866 201.052C14.8098 196.43 19.4311 193.558 23.4279 191.153C35.1059 184.159 48.5013 179.944 61.5532 176.29C88.6563 168.703 116.571 164.082 144.392 160.272C185.047 154.683 226.014 150.936 266.981 148.219C296.363 146.252 325.839 144.972 355.284 145.316C388.913 145.69 421.168 148.563 453.923 155.557C476.748 160.428 499.449 165.83 521.899 172.169C536.637 176.322 551.313 180.787 565.551 186.438C568.049 187.438 571.547 188.905 573.045 189.561C574.232 190.092 575.387 190.654 576.542 191.216C577.198 191.528 577.854 191.872 578.541 192.215C578.822 192.34 579.072 192.496 579.353 192.621C579.415 192.652 579.571 192.746 579.915 192.933C580.852 193.464 581.819 194.026 582.756 194.588C582.881 194.682 582.944 194.713 583.037 194.744C583.131 194.807 583.193 194.838 583.318 194.932C583.787 195.244 584.255 195.587 584.723 195.931C584.879 196.056 585.004 196.118 585.067 196.181C585.129 196.212 585.161 196.243 585.223 196.306C585.535 196.587 585.879 196.836 586.191 197.117C587.19 197.96 586.878 197.617 587.721 198.679C595.371 208.233 596.339 222.378 589.969 232.901C589.875 233.057 589.875 233.213 589.907 233.4C586.035 266.499 577.542 299.066 563.241 329.26C550.189 356.863 532.516 382.061 511.22 403.794Z" fill="#D8D8D8"/>
<path d="M292.054 43.6169C298.393 29.2535 294.271 11.6115 279.876 3.89903C266.013 -3.50122 246.06 -0.534878 238.16 14.2344C234.476 21.1038 236.818 33.1254 226.108 33.5625C220.862 33.7811 215.616 31.5954 210.401 31.0021C205.811 30.5025 201.097 31.0958 196.912 33.0317C186.14 38.0276 185.734 50.5175 187.264 60.7905C187.951 65.4117 171.214 63.788 177.366 78.0577C177.428 78.5261 184.985 85.5517 185.078 86.02C184.079 94.4819 190.761 92.6084 193.446 100.758C198.786 117.057 212.993 130.203 230.573 131.046C239.909 131.483 249.151 128.048 257.114 123.427C264.764 118.993 272.664 113.342 278.534 106.691C284.591 99.8526 301.515 94.1697 300.048 84.9272C298.736 76.5902 295.895 65.5366 272.57 65.4117C271.102 65.4117 269.853 64.2252 268.604 63.4446C270.977 61.3213 273.663 60.3533 276.692 59.0419C283.561 56.0131 289.025 50.5175 292.054 43.6169ZM268.261 63.4758C266.949 63.7568 267.387 63.3197 267.949 63.0386C268.074 63.1635 268.386 63.4446 268.261 63.4758ZM207.185 62.1019C207.185 62.1019 207.185 62.1331 207.185 62.1019C207.06 62.0394 206.936 61.9458 206.811 61.8833C206.842 61.7896 206.873 61.696 206.904 61.6023C207.185 61.7896 207.341 62.0082 207.185 62.1019ZM268.511 63.4133C268.417 63.3509 268.323 63.3197 268.261 63.2572C268.105 63.1323 268.011 63.0699 267.949 63.0386C268.479 62.7576 269.135 62.6327 268.511 63.4133Z" fill="#4D6D0F"/>
<path d="M70.2029 208.265C70.2029 208.265 21.9919 219.412 16.7149 188.469C12.4684 163.707 48.2519 177.821 29.5795 152.217C8.37794 123.084 41.1639 90.2981 60.0861 98.4789C79.0395 106.66 80.1011 107.971 97.5557 98.4789C115.01 88.9866 150.981 76.9651 158.163 105.036C165.345 133.138 185.172 140.788 217.958 141.069C250.744 141.35 284.03 160.616 273.694 187.095C263.359 213.573 282.999 177.072 306.199 178.071C329.399 179.07 355.534 219.974 339.735 251.98C323.966 284.016 292.367 284.766 270.603 307.747C248.839 330.728 147.64 323.921 139.178 306.311C130.716 288.7 63.8955 249.888 70.2029 208.265Z" fill="#4D6D0F"/>
<path d="M135.307 56.3252C134.495 48.4878 131.779 39.5263 124.972 34.8426C118.852 30.6585 110.015 31.5328 103.989 35.4046C97.0255 39.8698 92.6541 47.4574 92.2481 55.7319C91.9047 62.8199 94.9335 69.2522 99.7421 74.1545C101.116 78.2449 103.583 81.867 107.829 83.8029C115.511 87.3626 124.253 83.2721 129.218 77.0584C133.871 71.2194 136.088 63.8191 135.307 56.3252Z" fill="#4D6D0F"/>
<path d="M330.835 53.8905C330.804 53.7656 330.741 53.6095 330.71 53.4846C330.46 52.7977 330.179 52.0795 329.836 51.455C329.773 51.3301 329.711 51.2364 329.648 51.1427C329.242 50.5183 328.774 49.925 328.306 49.3629C327.993 48.9882 327.619 48.676 327.244 48.3637C326.901 47.8954 326.526 47.427 326.089 47.0835C325.433 46.5215 324.715 45.897 323.903 45.4599C323.122 45.0539 322.279 44.6168 321.436 44.4294C321.062 44.3358 320.624 44.3045 320.312 44.2733C320 44.2421 319.5 44.1172 319.094 44.1172C318.345 44.1172 317.564 44.2109 316.846 44.3982C316.784 44.4294 316.69 44.4294 316.628 44.4607C316.034 44.7105 315.472 44.9603 314.879 45.1788C314.848 45.2101 314.785 45.2101 314.754 45.2413C314.13 45.616 313.536 46.0843 313.006 46.6152C312.475 47.146 311.975 47.7705 311.632 48.4574C310.82 50.0499 310.695 50.7681 310.539 52.5479C310.508 52.7352 310.508 52.9226 310.539 53.1099C310.601 53.953 310.726 54.796 310.882 55.6079C310.945 55.9201 311.07 56.2324 311.132 56.5446C311.195 57.1379 311.257 57.981 311.444 58.6367C311.663 59.3548 312.006 60.1979 312.412 60.8849C313.474 62.6334 314.723 63.7263 316.315 64.9128C316.534 65.069 316.784 65.2251 317.034 65.3812C317.845 65.8184 318.72 66.2243 319.625 66.4429C320.031 66.5365 320.531 66.5678 320.937 66.6302C321.311 66.6927 321.811 66.7863 322.217 66.7863C322.592 66.7551 323.06 66.6927 323.341 66.6302C323.591 66.599 324.122 66.5678 324.465 66.4741C325.183 66.2867 325.901 66.0057 326.526 65.631C327.119 65.2563 327.712 64.8192 328.212 64.3508C328.243 64.3196 328.243 64.2884 328.274 64.2884C328.805 63.7888 329.274 63.2579 329.648 62.6334C329.711 62.5085 329.804 62.3836 329.867 62.2587C330.179 61.603 330.491 60.8849 330.741 60.1979C330.835 59.9169 330.897 59.6359 330.96 59.3548C331.085 58.5742 331.303 57.5126 331.241 56.6383C331.178 55.7016 331.085 54.7648 330.835 53.8905Z" fill="#4D6D0F"/>
<path d="M493.984 309.276C493.984 309.276 497.887 331.352 515.561 329.791C533.234 328.23 532.422 316.833 540.259 312.586C548.097 308.34 555.965 313.211 561.648 307.465C567.331 301.72 574.919 281.174 559.119 272.494C543.351 263.844 544.319 248.294 562.991 247.17C581.663 246.046 584.692 216.695 559.119 216.352C538.011 216.071 561.211 201.239 573.014 205.017C612.888 217.694 629.343 175.978 607.517 151.029C587.721 128.392 574.981 151.342 559.556 139.976C544.131 128.61 570.828 125.019 562.991 108.158C554.529 89.9539 515.404 85.8635 505.381 141.1C495.358 196.305 407.96 199.615 420.887 253.353C433.814 307.059 493.984 309.276 493.984 309.276Z" fill="#4D6D0F"/>
<path d="M312.788 437.61C312.788 437.61 320.75 475.236 347.853 465.244C374.956 455.252 373.489 433.426 392.192 450.693C410.896 467.96 428.6 449.507 429.318 431.303C430.037 413.13 449.864 409.508 472.69 415.722C495.515 421.966 504.414 392.896 500.355 383.591C496.296 374.286 500.511 363.17 511.627 363.607C522.743 364.045 535.982 354.396 528.457 331.665C520.932 308.964 430.755 254.977 406.243 254.04C381.732 253.103 343.482 237.897 318.564 255.913C293.647 273.93 255.99 325.576 255.99 325.576C255.99 325.576 255.178 449.756 312.788 437.61Z" fill="#4D6D0F"/>
<path d="M255.99 193.746C255.99 193.746 211.464 175.199 226.046 149.75C240.628 124.302 261.517 139.446 259.925 119.868C258.332 100.322 249.901 123.584 259.925 91.1417C269.542 60.0731 297.113 55.5768 323.904 78.0273C352.1 101.664 351.132 67.1299 371.959 60.9787C392.786 54.8274 404.526 70.3148 402.497 84.8968C400.467 99.4787 413.425 45.3663 441.933 49.1445C470.442 52.9227 444.025 89.4244 472.69 89.8615C501.354 90.2987 526.365 64.0387 529.987 102.008C531.985 123.085 513.063 121.898 518.247 147.783C523.461 173.669 546.599 176.541 532.922 201.927C519.246 227.313 480.871 235.181 498.856 257.601C516.841 280.02 469.068 338.691 451.426 315.491C433.784 292.323 398.687 284.235 392.817 306.28C386.947 328.325 323.342 310.058 321.874 274.181C320.438 238.304 299.642 166.362 255.99 193.746Z" fill="#60891F"/>
<path d="M66.3936 206.36C66.3936 206.36 59.649 198.866 42.6315 206.953C22.5853 216.508 29.4547 235.555 37.9791 241.831C46.5346 248.076 56.4953 247.608 51.9677 269.902C47.4402 292.228 53.9661 298.41 70.1717 294.351C86.3461 290.292 73.3254 305.342 70.1717 315.522C67.0181 325.67 72.1701 343.374 105.705 329.76C139.241 316.146 114.636 358.362 109.015 368.76C103.395 379.157 101.802 406.76 125.752 410.694C149.701 414.66 192.198 400.484 193.978 418.626C195.789 436.736 188.232 471.021 213.524 474.768C238.816 478.515 243.5 478.733 249.87 467.68C256.24 456.626 260.174 461.997 268.386 467.68C276.598 473.362 282.406 466.118 283.593 455.845C284.779 445.572 302.89 456.314 328.868 442.419C354.879 428.524 384.636 362.39 361.842 365.481C339.079 368.572 329.93 353.834 342.077 338.784C354.223 323.734 344.824 289.199 322.062 288.793C299.299 288.387 286.653 299.909 265.826 315.927C244.999 331.946 273.851 304.53 274.85 273.774C275.849 242.987 240.19 205.454 210.277 228.217C176.242 254.103 140.178 249.231 138.304 237.366C136.493 225.532 75.074 189.405 66.3936 206.36Z" fill="#60891F"/>
<path d="M149.327 302.22L149.483 291.479L199.598 269.746C199.598 269.746 219.488 291.041 246.123 277.084C272.758 263.126 278.316 235.461 278.316 235.461C278.316 235.461 280.408 234.993 284.842 234.275C297.987 232.058 316.41 232.276 320.438 238.303C339.547 266.811 305.762 295.663 295.115 314.71C284.467 333.788 256.646 364.076 231.635 361.141C206.624 358.237 168.217 360.079 149.327 302.22Z" fill="#D6D64C"/>
<path d="M245.03 302.377C276.723 289.137 283.718 254.01 284.811 234.307C280.814 235.025 278.285 235.493 278.285 235.493C278.285 235.493 272.727 263.19 246.092 277.116C219.457 291.073 199.567 269.778 199.567 269.778L188.795 274.462C199.192 292.322 217.958 313.68 245.03 302.377Z" fill="#9BA231"/>
<path d="M124.533 105.035L134.806 108.158L141.769 162.333C141.769 162.333 115.79 175.541 121.816 205.017C127.843 234.462 152.885 247.482 152.885 247.482C152.885 247.482 152.729 249.637 152.229 254.071C150.699 267.341 145.422 284.952 138.49 287.169C105.798 297.629 87.4693 257.162 72.1068 241.643C56.7442 226.125 35.3553 190.997 45.0974 167.797C54.8395 144.566 63.7073 107.127 124.533 105.035Z" fill="#D6D64C"/>
<path d="M97.8679 196.929C101.802 231.058 133.589 247.513 152.23 254.039C152.667 250.011 152.886 247.451 152.886 247.451C152.886 247.451 127.812 234.461 121.817 204.985C115.822 175.509 141.77 162.301 141.77 162.301L140.271 150.654C120.225 155.65 94.4956 167.765 97.8679 196.929Z" fill="#9BA231"/>
<path d="M140.238 332.757L148.419 325.794L197.785 349.213C197.785 349.213 194.85 378.252 222.921 389.118C250.992 399.984 275.503 385.933 275.503 385.933C275.503 385.933 277.221 387.213 280.687 390.055C291.022 398.517 303.012 412.505 301.139 419.531C292.271 452.723 248.275 446.259 226.886 450.818C205.498 455.346 164.343 454.378 150.074 433.613C135.804 412.818 109.107 385.09 140.238 332.757Z" fill="#D6D64C"/>
<path d="M203.187 404.918C234.068 420.062 265.137 402.201 280.686 390.024C277.533 387.463 275.503 385.902 275.503 385.902C275.503 385.902 250.992 399.953 222.921 389.087C194.85 378.221 197.785 349.182 197.785 349.182L187.168 344.154C180.549 363.764 176.833 391.991 203.187 404.918Z" fill="#9BA231"/>
<path d="M283.965 98.6035L292.302 94.7316L327.742 125.207C327.742 125.207 318.781 148.501 339.451 163.801C360.153 179.101 383.541 173.043 383.541 173.043C383.541 173.043 384.665 174.48 386.913 177.602C393.533 186.907 400.246 201.177 397.123 206.516C382.292 231.902 347.476 216.633 328.804 215.54C310.131 214.447 276.44 204.362 269.352 184.003C262.233 163.645 246.464 134.762 283.965 98.6035Z" fill="#D6D64C"/>
<path d="M319.594 172.356C341.638 191.84 371.302 184.096 386.883 177.571C384.853 174.76 383.511 173.012 383.511 173.012C383.511 173.012 360.123 179.069 339.421 163.769C318.719 148.469 327.712 125.175 327.712 125.175L320.093 118.618C310.226 133.294 300.765 155.713 319.594 172.356Z" fill="#9BA231"/>
<path d="M374.486 313.804L371.27 303.562L412.05 267.248C412.05 267.248 437.623 281.268 458.543 259.66C479.464 238.084 476.091 210.044 476.091 210.044C476.091 210.044 477.934 208.951 481.899 206.859C493.702 200.645 511.25 195.056 516.965 199.521C544.036 220.629 520.993 258.567 516.808 280.019C512.656 301.47 495.732 338.94 471.064 343.967C446.459 349.057 410.551 362.858 374.486 313.804Z" fill="#D6D64C"/>
<path d="M465.443 283.984C491.422 261.471 487.051 225.937 481.93 206.859C478.339 208.764 476.122 210.044 476.122 210.044C476.122 210.044 479.526 238.084 458.574 259.66C437.622 281.236 412.08 267.247 412.08 267.247L403.306 275.054C418.762 288.792 443.242 303.218 465.443 283.984Z" fill="#9BA231"/>
<path d="M494.359 215.822C494.359 215.822 481.775 196.275 505.006 186.939C528.269 177.603 559.493 203.644 559.556 218.632C559.618 233.62 546.067 241.301 528.862 238.959C511.688 236.649 495.264 217.446 494.359 215.822Z" fill="#422532"/>
<path d="M552.437 219.789C552.25 220.133 552.687 219.446 552.437 219.789C552.281 220.039 552.094 220.289 551.938 220.538C551.344 221.35 550.689 222.131 549.971 222.849C549.721 223.099 550.033 222.787 549.846 222.974C549.721 223.099 549.596 223.224 549.471 223.317C549.221 223.536 549.003 223.723 548.753 223.942C548.191 224.41 547.566 224.816 546.942 225.191C546.848 225.253 546.754 225.285 546.692 225.347C546.786 225.285 546.786 225.316 546.629 225.378C546.505 225.441 546.348 225.534 546.224 225.597C545.849 225.784 545.443 225.972 545.037 226.128C544.225 226.44 543.601 226.596 542.789 226.752C542.008 226.877 541.415 227.533 541.509 228.376C541.602 229.125 542.352 229.812 543.132 229.656C548.128 228.782 552.718 225.378 555.185 220.976C555.56 220.289 555.123 219.352 554.436 219.04C553.593 218.727 552.843 219.102 552.437 219.789Z" fill="#7C596B"/>
<path d="M544.287 221.255C546.254 223.784 548.19 226.345 549.97 228.999C550.188 229.342 550.407 229.686 550.625 230.029C550.781 230.31 550.5 229.748 550.563 229.935C550.594 229.998 550.625 230.029 550.656 230.092C550.688 230.185 550.75 230.279 550.75 230.373C550.937 231.153 551.999 231.465 552.655 231.184C553.467 230.872 553.654 230.06 553.467 229.28C553.311 228.686 552.873 228.124 552.561 227.594C552.062 226.813 551.5 226.032 550.969 225.252C549.813 223.659 548.658 222.098 547.472 220.537C547.191 220.193 546.941 219.819 546.66 219.475C546.191 218.851 545.255 218.695 544.599 219.163C543.974 219.694 543.818 220.631 544.287 221.255Z" fill="#7C596B"/>
<path d="M383.105 126.145C383.105 126.145 358.251 130.891 358.313 103.632C358.375 76.3724 397.344 55.4831 412.488 61.5095C427.632 67.5671 429.88 84.366 420.513 100.728C411.145 117.121 385.104 125.895 383.105 126.145Z" fill="#422532"/>
<path d="M410.741 69.1601C411.022 69.5036 410.491 68.7854 410.741 69.1601C410.928 69.4099 411.115 69.691 411.303 69.972C411.896 70.9087 412.396 71.8767 412.833 72.9071C412.989 73.2506 412.801 72.8134 412.926 73.0945C412.989 73.2818 413.051 73.4379 413.114 73.6253C413.239 73.9375 413.332 74.281 413.426 74.6245C413.644 75.3739 413.832 76.1545 413.957 76.9663C413.988 77.0912 413.988 77.1849 414.019 77.3098C413.988 77.1849 414.019 77.2161 414.019 77.4035C414.05 77.5596 414.05 77.7469 414.05 77.9031C414.082 78.3714 414.113 78.8398 414.082 79.3082C414.05 80.2449 413.988 80.9631 413.801 81.8374C413.613 82.6804 414.05 83.5547 414.893 83.8045C415.674 84.0231 416.673 83.5547 416.861 82.7117C418.016 77.3098 416.455 71.3146 412.989 67.0056C412.458 66.3187 411.303 66.4124 410.741 66.9744C410.116 67.5677 410.21 68.5044 410.741 69.1601Z" fill="#7C596B"/>
<path d="M408.929 77.9973C412.27 77.0605 415.642 76.1238 419.046 75.4056C419.483 75.312 419.92 75.2495 420.357 75.1558C420.701 75.0934 420.014 75.1871 420.232 75.1558C420.295 75.1558 420.357 75.1558 420.42 75.1246C420.513 75.1246 420.638 75.1246 420.732 75.1246C421.575 75.2495 422.324 74.3128 422.324 73.5321C422.324 72.5642 421.606 72.0646 420.732 71.9397C420.076 71.846 419.327 72.0646 418.671 72.1895C417.672 72.3768 416.673 72.6266 415.674 72.8764C413.613 73.376 411.552 73.9381 409.491 74.5001C409.023 74.625 408.554 74.7499 408.086 74.8748C407.274 75.0934 406.712 75.9677 406.962 76.8107C407.18 77.6538 408.086 78.2159 408.929 77.9973Z" fill="#7C596B"/>
<path d="M133.464 215.04C133.464 215.04 93.8709 235.274 88.6876 264.625C83.5043 293.976 86.2521 313.086 104.238 342.687C122.223 372.288 151.168 377.752 179.489 381.406C207.81 385.059 239.503 357.019 239.503 357.019L143.581 210.294C143.581 210.294 141.988 209.108 133.464 215.04Z" fill="#D61D10"/>
<path d="M183.83 319.487C183.83 319.487 169.748 322.235 171.653 328.386C173.558 334.537 182.332 332.351 183.83 319.487Z" fill="#F36C2B"/>
<path d="M172.776 304.373C172.776 304.373 157.475 304.373 158.194 311.211C158.943 318.018 168.56 317.55 172.776 304.373Z" fill="#F36C2B"/>
<path d="M160.723 291.227C160.723 291.227 146.765 289.135 146.515 295.474C146.234 301.781 155.102 302.655 160.723 291.227Z" fill="#F36C2B"/>
<path d="M152.886 276.147C152.886 276.147 140.615 269.964 138.46 275.741C136.274 281.486 144.206 284.983 152.886 276.147Z" fill="#F36C2B"/>
<path d="M153.792 262.657C153.792 262.657 144.55 252.509 140.459 257.13C136.369 261.721 142.52 267.809 153.792 262.657Z" fill="#F36C2B"/>
<path d="M193.197 329.791C193.197 329.791 182.736 336.722 186.327 341.063C189.918 345.403 196.288 340.719 193.197 329.791Z" fill="#F36C2B"/>
<path d="M195.32 358.549C206.467 356.551 223.766 349.588 232.29 345.966L224.172 333.538C212.4 338.597 191.511 346.809 182.549 345.747C169.747 344.217 161.816 341.782 146.547 325.576C131.247 309.37 130.778 291.822 129.842 275.679C129.061 261.878 152.136 239.833 158.912 233.682L148.139 217.195C140.552 222.316 127 232.089 118.57 241.55C106.392 255.258 106.08 277.49 105.767 288.169C105.455 298.848 116.727 318.02 131.653 336.224C146.578 354.428 180.082 361.297 195.32 358.549Z" fill="#E2481E"/>
<path d="M155.32 228.279L138.365 237.428C140.863 242.986 144.485 249.169 149.294 252.853C159.66 260.784 157.225 292.446 171.838 299.784C186.451 307.09 187.669 322.328 195.6 327.824C198.379 329.76 203.594 337.722 209.183 347.245C213.991 344.248 220.58 340.064 226.075 336.535L155.32 228.279Z" fill="#E2481E"/>
<path d="M380.482 220.441C380.482 220.441 411.957 251.853 441.464 247.7C470.972 243.548 488.301 235.054 510.908 208.794C533.483 182.566 529.768 153.339 524.491 125.268C519.214 97.1973 482.774 75.7147 482.774 75.7147L372.863 212.292C372.832 212.292 372.176 214.165 380.482 220.441Z" fill="#D61D10"/>
<path d="M465.038 140.255C465.038 140.255 472.002 152.776 477.247 149.092C482.493 145.345 477.716 137.695 465.038 140.255Z" fill="#F36C2B"/>
<path d="M454.048 155.43C454.048 155.43 458.763 169.981 465.039 167.171C471.347 164.392 467.881 155.368 454.048 155.43Z" fill="#F36C2B"/>
<path d="M445.275 170.95C445.275 170.95 447.617 184.876 453.706 183.159C459.826 181.473 457.921 172.792 445.275 170.95Z" fill="#F36C2B"/>
<path d="M433.346 183.065C433.346 183.065 431.254 196.648 437.405 196.929C443.588 197.21 444.462 188.592 433.346 183.065Z" fill="#F36C2B"/>
<path d="M420.263 186.375C420.263 186.375 413.487 198.302 419.139 200.769C424.759 203.236 428.663 195.492 420.263 186.375Z" fill="#F36C2B"/>
<path d="M471.94 128.172C471.94 128.172 481.776 135.978 484.805 131.232C487.803 126.423 481.37 121.833 471.94 128.172Z" fill="#F36C2B"/>
<path d="M498.637 117.244C493.297 107.252 481.307 92.951 475.249 85.9879L465.944 97.5723C474.375 107.189 488.676 124.519 490.424 133.387C492.922 146.033 493.047 154.308 482.368 173.885C471.658 193.432 455.141 199.334 440.059 205.173C427.194 210.169 399.092 195.056 391.13 190.497L378.796 205.828C386.04 211.48 399.498 221.347 411.082 226.437C427.881 233.774 449.145 227.217 459.356 224.188C469.598 221.191 484.367 204.517 497.044 184.72C509.784 164.893 505.943 130.889 498.637 117.244Z" fill="#E2481E"/>
<path d="M387.07 195.555L400.996 208.857C405.524 204.767 410.27 199.396 412.299 193.682C416.64 181.379 447.521 173.917 449.956 157.742C452.392 141.568 466.505 135.698 469.284 126.486C470.252 123.239 476.248 115.808 483.554 107.595C479.214 103.942 473.188 98.9774 468.129 94.8558L387.07 195.555Z" fill="#E2481E"/>
<path d="M271.54 219.974C271.54 219.974 301.484 186.407 295.645 156.868C289.806 127.33 280.22 110.281 252.462 88.9546C224.703 67.6282 195.414 73.0613 167.343 79.9619C139.272 86.8938 119.663 124.894 119.663 124.894L263.734 228.154C263.734 228.154 265.67 228.685 271.54 219.974Z" fill="#D61D10"/>
<path d="M185.859 139.944C185.859 139.944 198.13 132.201 194.071 127.111C190.012 122.021 182.549 127.267 185.859 139.944Z" fill="#F36C2B"/>
<path d="M201.814 150.156C201.814 150.156 216.24 144.566 213.055 138.384C209.87 132.233 200.971 136.198 201.814 150.156Z" fill="#F36C2B"/>
<path d="M217.958 158.15C217.958 158.15 231.884 154.996 229.824 148.939C227.763 142.881 219.114 145.285 217.958 158.15Z" fill="#F36C2B"/>
<path d="M230.885 169.515C230.885 169.515 244.718 170.858 244.624 164.613C244.562 158.368 235.819 157.962 230.885 169.515Z" fill="#F36C2B"/>
<path d="M234.944 182.536C234.944 182.536 247.372 188.718 249.526 182.879C251.712 177.04 243.687 173.543 234.944 182.536Z" fill="#F36C2B"/>
<path d="M173.244 133.669C173.244 133.669 180.582 123.303 175.586 120.524C170.621 117.745 166.343 124.489 173.244 133.669Z" fill="#F36C2B"/>
<path d="M160.754 107.315C150.981 113.279 137.211 126.175 130.529 132.67L142.738 141.413C151.98 132.357 168.685 116.932 177.491 114.684C190.105 111.437 198.474 110.844 218.832 120.523C239.191 130.203 246.06 146.565 252.805 161.459C258.581 174.167 244.905 203.394 240.752 211.668L256.926 223.253C262.203 215.634 271.415 201.489 275.88 189.499C282.343 172.106 274.506 151.03 270.884 140.882C267.262 130.703 249.62 116.745 228.887 105.036C208.216 93.3578 174.087 99.1656 160.754 107.315Z" fill="#E2481E"/>
<path d="M246.091 215.508L258.737 200.676C254.334 196.336 248.683 191.84 242.781 190.122C230.104 186.438 220.83 155.682 204.375 154.152C187.919 152.622 181.206 138.695 171.714 136.416C168.373 135.604 160.567 130.015 151.824 123.052C148.389 127.642 143.705 134.012 139.833 139.32L246.091 215.508Z" fill="#E2481E"/>
<path d="M277.223 389.024C277.223 389.024 291.836 436.236 322.967 447.477C354.098 458.717 375.55 459.373 411.364 445.322C447.179 431.271 458.67 400.639 468.068 370.32C477.467 340.001 452.8 300.002 452.8 300.002L273.944 377.096C273.944 377.065 272.352 378.564 277.223 389.024Z" fill="#D61D10"/>
<path d="M401.122 353.739C401.122 353.739 401.466 369.664 408.554 368.758C415.642 367.853 414.924 357.83 401.122 353.739Z" fill="#F36C2B"/>
<path d="M382.483 362.982C382.483 362.982 379.579 379.749 387.197 380.249C394.785 380.717 396.097 370.101 382.483 362.982Z" fill="#F36C2B"/>
<path d="M365.776 373.661C365.776 373.661 360.843 388.555 367.712 390.023C374.613 391.553 377.236 382.029 365.776 373.661Z" fill="#F36C2B"/>
<path d="M347.792 379.375C347.792 379.375 338.705 391.615 344.607 395.081C350.508 398.547 355.816 390.584 347.792 379.375Z" fill="#F36C2B"/>
<path d="M333.209 375.814C333.209 375.814 320.345 384.027 324.622 389.366C328.9 394.705 336.706 389.147 333.209 375.814Z" fill="#F36C2B"/>
<path d="M414.175 345.465C414.175 345.465 419.796 358.235 425.229 355.144C430.662 352.022 426.728 344.153 414.175 345.465Z" fill="#F36C2B"/>
<path d="M446.086 348.619C446.024 336.036 441.684 315.771 439.342 305.779L424.167 312.305C427.445 326.138 432.504 350.587 429.631 360.173C425.54 373.88 421.356 382.092 400.686 395.769C380.015 409.414 360.749 406.635 342.889 404.543C327.651 402.763 307.917 373.318 302.453 364.731L282.375 373.381C286.559 382.686 294.646 399.36 303.389 410.382C316.067 426.338 340.359 430.897 351.975 433.238C363.591 435.611 386.728 426.9 409.491 414.035C432.285 401.202 446.18 365.824 446.086 348.619Z" fill="#E2481E"/>
<path d="M295.864 367.636L302.64 387.932C309.197 386.245 316.659 383.466 321.593 378.876C332.241 369.041 366.463 377.721 377.235 363.108C388.008 348.495 404.932 350.056 412.426 342.437C415.08 339.752 424.791 335.568 436.25 331.29C433.877 325.451 430.536 317.457 427.726 310.775L295.864 367.636Z" fill="#E2481E"/>
<path d="M364.278 284.859C364.278 284.859 361.873 310.057 335.738 302.376C309.603 294.695 300.454 251.418 310.477 238.553C320.532 225.688 337.268 228.28 350.383 241.832C363.497 255.383 364.621 282.83 364.278 284.859Z" fill="#422532"/>
<path d="M317.349 242.329C317.755 242.173 316.912 242.485 317.349 242.329C317.661 242.236 317.973 242.111 318.285 242.017C319.347 241.705 320.409 241.517 321.502 241.361C321.876 241.299 321.408 241.361 321.72 241.33C321.907 241.299 322.095 241.299 322.282 241.299C322.626 241.268 322.969 241.268 323.313 241.268C324.124 241.268 324.905 241.299 325.686 241.424C325.811 241.424 325.904 241.455 326.029 241.455C325.904 241.424 325.935 241.424 326.123 241.486C326.279 241.517 326.466 241.549 326.622 241.58C327.091 241.674 327.528 241.798 327.965 241.923C328.871 242.204 329.526 242.485 330.307 242.891C331.056 243.297 332.024 243.141 332.493 242.392C332.93 241.705 332.742 240.612 331.993 240.206C327.153 237.583 320.94 237.396 315.819 239.519C315.038 239.831 314.788 240.955 315.163 241.674C315.631 242.485 316.568 242.673 317.349 242.329Z" fill="#7C596B"/>
<path d="M325.311 246.576C325.343 243.11 325.374 239.613 325.655 236.147C325.686 235.71 325.749 235.273 325.78 234.836C325.811 234.492 325.717 235.148 325.749 234.961C325.78 234.898 325.78 234.836 325.78 234.773C325.811 234.68 325.842 234.555 325.873 234.461C326.217 233.681 325.561 232.713 324.812 232.494C323.906 232.213 323.188 232.775 322.845 233.556C322.564 234.18 322.564 234.93 322.501 235.617C322.407 236.647 322.345 237.677 322.314 238.677C322.22 240.8 322.158 242.954 322.126 245.078C322.126 245.546 322.126 246.046 322.095 246.514C322.095 247.388 322.782 248.138 323.656 248.138C324.531 248.138 325.311 247.451 325.311 246.576Z" fill="#7C596B"/>
<path d="M511.627 363.607C511.627 363.607 488.115 372.975 483.025 346.215C477.904 319.456 512.22 291.541 528.269 294.601C544.288 297.661 549.658 313.741 543.57 331.602C537.481 349.463 513.563 363.014 511.627 363.607Z" fill="#422532"/>
<path d="M528.019 302.439C528.331 302.72 527.676 302.126 528.019 302.439C528.238 302.657 528.488 302.907 528.706 303.126C529.455 303.937 530.142 304.812 530.767 305.717C530.985 306.03 530.736 305.624 530.892 305.905C530.985 306.061 531.079 306.217 531.204 306.404C531.391 306.716 531.547 306.997 531.704 307.31C532.078 308.028 532.391 308.746 532.672 309.495C532.703 309.589 532.734 309.714 532.797 309.808C532.765 309.683 532.765 309.714 532.828 309.901C532.89 310.057 532.921 310.214 532.984 310.401C533.109 310.838 533.202 311.306 533.296 311.775C533.452 312.712 533.515 313.43 533.483 314.304C533.452 315.178 534.046 315.959 534.951 316.021C535.763 316.084 536.637 315.428 536.668 314.554C536.793 309.027 534.108 303.438 529.924 299.847C529.268 299.285 528.175 299.566 527.707 300.222C527.082 300.971 527.363 301.877 528.019 302.439Z" fill="#7C596B"/>
<path d="M527.863 311.462C530.986 309.901 534.108 308.34 537.324 306.997C537.73 306.841 538.136 306.685 538.573 306.529C538.886 306.404 538.261 306.622 538.448 306.56C538.511 306.56 538.573 306.529 538.636 306.497C538.729 306.466 538.854 306.435 538.948 306.435C539.822 306.404 540.353 305.342 540.228 304.561C540.041 303.625 539.229 303.25 538.355 303.281C537.699 303.312 536.981 303.656 536.388 303.906C535.42 304.28 534.514 304.718 533.577 305.123C531.641 305.998 529.705 306.935 527.801 307.871C527.364 308.09 526.926 308.308 526.489 308.527C525.709 308.902 525.365 309.87 525.74 310.65C526.115 311.462 527.114 311.837 527.863 311.462Z" fill="#7C596B"/>
<path d="M159.068 377.127C159.068 377.127 158.381 351.835 185.265 356.269C212.15 360.703 226.544 402.513 218.145 416.502C209.745 430.49 192.79 429.991 178.146 418.125C163.47 406.291 158.974 379.157 159.068 377.127Z" fill="#422532"/>
<path d="M210.87 413.566C210.496 413.785 211.276 413.379 210.87 413.566C210.589 413.691 210.277 413.847 209.965 413.972C208.934 414.409 207.904 414.722 206.842 415.003C206.468 415.096 206.936 415.003 206.624 415.065C206.436 415.096 206.249 415.128 206.062 415.19C205.718 415.252 205.375 415.315 205.031 415.346C204.251 415.44 203.439 415.502 202.658 415.502C202.533 415.502 202.44 415.502 202.315 415.502C202.44 415.502 202.409 415.502 202.221 415.502C202.065 415.502 201.878 415.471 201.722 415.471C201.253 415.44 200.785 415.377 200.348 415.284C199.411 415.128 198.724 414.909 197.912 414.597C197.1 414.284 196.164 414.565 195.789 415.377C195.445 416.127 195.758 417.188 196.569 417.501C201.69 419.499 207.904 418.937 212.681 416.22C213.431 415.783 213.525 414.659 213.087 414.003C212.557 413.223 211.62 413.16 210.87 413.566Z" fill="#7C596B"/>
<path d="M202.44 410.35C202.846 413.816 203.22 417.282 203.376 420.748C203.408 421.185 203.408 421.622 203.408 422.09C203.408 422.434 203.439 421.747 203.408 421.966C203.408 422.028 203.408 422.09 203.408 422.153C203.408 422.247 203.376 422.371 203.345 422.465C203.095 423.277 203.876 424.183 204.657 424.307C205.593 424.464 206.249 423.839 206.499 422.996C206.686 422.371 206.593 421.591 206.593 420.935C206.561 419.905 206.499 418.874 206.405 417.875C206.249 415.752 206.031 413.629 205.812 411.505C205.75 411.037 205.718 410.537 205.656 410.069C205.562 409.226 204.782 408.539 203.907 408.633C203.033 408.695 202.346 409.507 202.44 410.35Z" fill="#7C596B"/>
<path d="M149.139 138.103C149.139 138.103 174.4 136.573 170.872 163.582C167.343 190.591 126.002 206.36 111.763 198.429C97.4935 190.498 97.431 173.543 108.828 158.492C120.131 143.473 147.078 138.103 149.139 138.103Z" fill="#422532"/>
<path d="M114.418 191.09C114.199 190.716 114.636 191.496 114.418 191.09C114.262 190.809 114.106 190.497 113.981 190.216C113.512 189.217 113.138 188.186 112.825 187.125C112.7 186.75 112.857 187.219 112.763 186.906C112.732 186.719 112.669 186.532 112.638 186.344C112.575 186.001 112.482 185.657 112.451 185.314C112.326 184.533 112.232 183.721 112.232 182.941C112.232 182.816 112.232 182.722 112.232 182.597C112.232 182.722 112.232 182.691 112.232 182.504C112.232 182.347 112.232 182.16 112.263 182.004C112.294 181.536 112.326 181.067 112.388 180.599C112.513 179.662 112.7 178.975 112.981 178.132C113.262 177.32 112.95 176.384 112.138 176.04C111.389 175.728 110.327 176.071 110.046 176.883C108.204 182.098 108.985 188.249 111.857 192.964C112.294 193.713 113.45 193.776 114.074 193.276C114.824 192.745 114.855 191.809 114.418 191.09Z" fill="#7C596B"/>
<path d="M117.353 182.566C113.919 183.065 110.453 183.565 106.987 183.846C106.55 183.877 106.112 183.908 105.644 183.908C105.301 183.908 105.988 183.94 105.769 183.908C105.707 183.908 105.644 183.908 105.582 183.908C105.488 183.908 105.363 183.877 105.269 183.877C104.426 183.659 103.583 184.471 103.49 185.251C103.365 186.188 104.02 186.812 104.863 187.031C105.519 187.218 106.269 187.093 106.924 187.062C107.955 187 108.954 186.906 109.984 186.781C112.108 186.531 114.231 186.25 116.323 185.969C116.791 185.907 117.291 185.844 117.759 185.751C118.602 185.626 119.258 184.845 119.133 183.971C119.039 183.097 118.196 182.441 117.353 182.566Z" fill="#7C596B"/>
<path d="M452.331 202.677C458.638 193.122 470.098 180.507 482.525 181.1C487.521 181.35 491.705 184.16 495.015 187.72C499.074 192.154 503.04 196.213 508.629 198.68C517.528 202.645 527.489 201.74 536.232 197.837C543.663 194.496 551.906 188.532 554.717 180.538C555.56 178.165 551.782 177.135 550.939 179.508C548.347 186.908 539.635 192.435 532.703 195.089C522.056 199.179 510.596 197.618 502.134 189.687C498.2 186.003 495.265 181.631 490.3 179.196C486.897 177.509 483.118 176.885 479.34 177.353C471.659 178.29 464.946 183.099 459.481 188.282C455.578 191.998 451.925 196.182 448.959 200.709C447.554 202.802 450.957 204.769 452.331 202.677Z" fill="#EDFFDE"/>
<path d="M549.096 186.907C549.096 186.907 531.485 144.223 548.534 140.476C565.551 136.729 557.745 178.57 557.745 178.57C557.745 178.57 588.345 160.616 598.243 172.388C608.11 184.191 586.003 204.549 549.096 186.907Z" fill="#E2FFA9"/>
<path d="M298.957 457.937C292.588 447.914 284.813 430.553 292.588 419.531C296.085 414.597 301.518 413.317 306.857 411.35C311.603 409.602 316.069 407.01 319.628 403.357C326.185 396.612 328.933 387.151 328.621 377.908C328.371 370.29 326.342 360.829 320.503 355.395C318.66 353.678 315.912 356.426 317.755 358.143C322.969 363.014 324.624 371.788 324.749 378.627C324.936 388.525 321.189 398.298 312.821 404.012C304.328 409.789 292.962 409.539 287.904 419.843C284.251 427.306 285.625 436.205 288.122 443.761C289.965 449.351 292.463 454.909 295.616 459.873C296.928 462.028 300.3 460.061 298.957 457.937Z" fill="#EDFFDE"/>
<path d="M323.874 362.983C323.874 362.983 277.723 361.672 281.221 344.592C284.718 327.512 319.752 351.711 319.752 351.711C319.752 351.711 315.818 316.458 330.618 312.212C345.419 307.965 355.036 336.442 323.874 362.983Z" fill="#F9FFEB"/>
<path d="M126.439 266.437C126.595 255.758 124.471 242.831 117.196 234.588C111.576 228.187 103.457 227.25 95.5574 229.311C84.7849 232.121 74.4807 229.654 67.1741 221.005C62.1782 215.104 57.3696 205.018 59.5241 197.087C60.1798 194.651 56.4328 193.621 55.7459 196.057C53.8724 202.926 56.5577 210.982 59.7739 217.008C64.0829 225.064 71.3582 231.809 80.4758 233.807C85.8777 234.994 91.2484 234.463 96.5566 233.089C100.803 231.996 105.299 231.528 109.39 233.464C116.103 236.649 119.132 244.455 120.724 251.231C121.911 256.164 122.536 261.347 122.473 266.437C122.473 268.966 126.376 268.966 126.439 266.437Z" fill="#EDFFDE"/>
<path d="M56.9329 203.769C56.9329 203.769 92.654 180.32 81.6004 168.579C70.5469 156.807 54.6847 192.903 54.6847 192.903C54.6847 192.903 40.6648 163.208 26.9572 167.049C13.2183 170.921 19.4945 198.024 56.9329 203.769Z" fill="#F9FFEB"/>
<path d="M199.474 115.904C210.278 117.434 223.892 117.09 233.009 110.408C240.191 105.162 241.284 97.2937 240.285 88.9879C239.004 78.2466 243.251 68.4733 252.525 62.6967C259.144 58.5438 269.48 55.2028 277.161 58.3565C279.472 59.3245 280.502 55.5463 278.191 54.5783C271.822 51.9554 263.61 53.5791 257.427 55.9522C249.184 59.0747 241.908 64.8824 238.411 73.1258C236.413 77.8719 235.788 83.1177 236.288 88.2385C236.756 93.0471 237.506 97.7621 235.133 102.258C231.542 109.034 223.236 111.376 216.148 112.219C212.495 112.656 208.748 112.719 205.063 112.531C203.908 112.469 202.753 112.375 201.597 112.282C201.285 112.25 199.661 112.063 200.473 112.157C198.069 111.782 197.007 115.56 199.474 115.904Z" fill="#EDFFDE"/>
<path d="M270.635 54.8284C270.635 54.8284 289.432 93.2036 302.484 83.7113C315.536 74.219 281.719 53.9853 281.719 53.9853C281.719 53.9853 312.944 43.7749 310.821 29.6925C308.697 15.5789 281.032 18.4204 270.635 54.8284Z" fill="#F9FFEB"/>
<path d="M207.998 239.709C206.905 239.865 208.091 239.709 208.341 239.678C208.997 239.615 209.684 239.553 210.34 239.49C212.494 239.334 214.649 239.303 216.772 239.397C221.862 239.584 227.638 240.333 231.822 243.518C237.63 247.921 235.694 255.446 235.288 261.722C234.82 269.31 234.539 277.428 237.224 284.704C240.409 293.322 247.403 298.567 255.803 301.69C258.176 302.564 259.175 298.786 256.833 297.912C248.621 294.852 242.283 289.419 240.066 280.738C238.036 272.745 238.942 264.158 239.566 256.008C240.066 249.732 239.191 244.018 233.758 240.115C229.293 236.899 223.548 235.868 218.177 235.525C214.43 235.275 210.621 235.4 206.905 235.899C204.469 236.305 205.531 240.052 207.998 239.709Z" fill="#EDFFDE"/>
<path d="M218.926 237.429C218.926 237.429 216.366 258.475 206.561 263.939C196.788 269.372 187.889 263.595 186.702 257.507C185.516 251.418 191.667 239.084 205.312 237.429C205.312 237.429 183.33 231.059 184.766 220.068C186.484 207.079 214.086 207.703 218.926 237.429Z" fill="#DEFF9F"/>
<path d="M116.448 370.726C117.041 378.563 119.164 387.337 124.067 393.613C127.408 397.86 132.216 400.264 137.681 399.608C141.678 399.109 145.581 397.485 149.452 396.423C153.761 395.206 158.164 394.113 162.661 393.707C173.527 392.708 181.801 397.267 187.64 406.384C188.983 408.476 192.386 406.54 191.013 404.417C186.704 397.704 180.833 392.114 172.84 390.335C165.19 388.649 157.259 390.272 149.827 392.271C143.738 393.894 135.963 398.172 130.031 394.082C125.784 391.115 123.661 385.713 122.287 380.936C121.35 377.626 120.601 374.191 120.351 370.788C120.164 368.228 116.261 368.228 116.448 370.726Z" fill="#EDFFDE"/>
<path d="M120.413 381.999C120.413 381.999 140.459 375.036 143.706 364.326C146.954 353.616 139.397 346.153 133.215 346.278C127.032 346.403 116.26 355.021 117.54 368.698C117.54 368.698 106.643 348.558 96.2136 352.305C83.8798 356.707 90.3745 383.561 120.413 381.999Z" fill="#DEFF9F"/>
<path d="M492.612 364.858C485.993 372.789 471.817 384.905 462.637 374.07C456.329 366.638 450.99 358.239 442.59 352.931C434.16 347.591 424.667 347.903 415.612 351.525C413.302 352.431 414.301 356.209 416.643 355.304C427.602 350.932 437.376 352.493 445.994 360.581C449.959 364.296 453.363 368.574 456.704 372.852C459.358 376.255 461.794 379.784 465.946 381.439C476.813 385.81 488.897 375.412 495.36 367.637C496.984 365.701 494.236 362.922 492.612 364.858Z" fill="#EDFFDE"/>
<path d="M485.836 374.256C485.836 374.256 473.533 356.988 477.093 346.372C480.653 335.756 491.113 334.038 496.078 337.754C501.042 341.438 504.821 354.678 495.859 365.107C495.859 365.107 516.374 354.99 522.744 364.076C530.238 374.786 509.411 392.928 485.836 374.256Z" fill="#DEFF9F"/>
<path d="M478.154 275.961C471.284 277.085 460.605 277.397 454.204 272.807C448.209 268.529 450.02 260.879 450.239 254.572C450.489 247.015 450.52 239.053 447.71 231.903C444.337 223.347 437.187 218.195 428.694 215.291C426.321 214.479 425.29 218.257 427.663 219.069C435.938 221.88 442.464 227.125 444.899 235.743C447.179 243.706 446.492 252.324 446.055 260.505C445.743 266.781 446.742 272.401 452.237 276.179C456.734 279.271 462.51 280.145 467.85 280.363C471.628 280.52 475.468 280.332 479.215 279.708C481.651 279.302 480.589 275.555 478.154 275.961Z" fill="#EDFFDE"/>
<path d="M467.224 278.553C467.224 278.553 469.223 257.446 478.84 251.731C488.488 246.017 497.512 251.575 498.855 257.633C500.198 263.659 494.39 276.18 480.807 278.21C480.807 278.21 502.945 283.987 501.821 295.009C500.479 308.03 472.845 308.123 467.224 278.553Z" fill="#F9FFEB"/>
<path d="M328.493 199.833C330.429 194.743 333.958 189.248 337.861 185.095C341.327 181.379 345.573 178.288 350.476 176.82C355.534 175.321 360.187 176.914 365.214 176.321C380.857 174.478 378.515 149.436 377.36 138.695C376.798 133.324 375.986 127.922 374.831 122.645C374.3 120.21 370.522 121.24 371.053 123.676C373.676 135.385 375.549 148.655 373.426 160.552C372.864 163.737 371.958 167.203 369.804 169.701C367.431 172.511 364.308 172.636 360.905 172.23C350.913 171.012 341.889 175.072 335.082 182.316C330.679 186.999 326.995 192.745 324.715 198.771C323.841 201.144 327.619 202.143 328.493 199.833Z" fill="#EDFFDE"/>
<path d="M374.457 130.983C374.457 130.983 314.287 124.426 331.024 99.54C349.165 72.5618 372.553 120.71 372.553 120.71C372.553 120.71 365.277 81.7419 383.825 80.2743C403.902 78.6819 414.081 99.0092 374.457 130.983Z" fill="#DEFF9F"/>
<path d="M258.738 328.324C258.738 329.823 257.52 331.041 256.021 331.041C254.523 331.041 253.305 329.823 253.305 328.324C253.305 326.825 254.523 325.608 256.021 325.608C257.52 325.608 258.738 326.794 258.738 328.324Z" fill="#F8AB1D"/>
<path d="M125.064 319.458C125.064 323.267 121.973 326.327 118.195 326.327C114.385 326.327 111.325 323.236 111.325 319.458C111.325 315.648 114.416 312.588 118.195 312.588C121.973 312.588 125.064 315.648 125.064 319.458Z" fill="#F8AB1D"/>
<path d="M402.465 306.31C404.982 306.31 407.024 304.269 407.024 301.751C407.024 299.233 404.982 297.192 402.465 297.192C399.947 297.192 397.906 299.233 397.906 301.751C397.906 304.269 399.947 306.31 402.465 306.31Z" fill="#F8AB1D"/>
<path d="M436.281 431.303C436.281 435.143 433.158 438.266 429.318 438.266C425.477 438.266 422.355 435.143 422.355 431.303C422.355 427.462 425.477 424.339 429.318 424.339C433.158 424.339 436.281 427.462 436.281 431.303Z" fill="#F8AB1D"/>
<path d="M472.688 406.603C472.688 407.29 472.126 407.852 471.439 407.852C470.752 407.852 470.19 407.29 470.19 406.603C470.19 405.916 470.752 405.354 471.439 405.354C472.126 405.354 472.688 405.916 472.688 406.603Z" fill="#F8AB1D"/>
<path d="M562.992 272.493C562.992 274.616 561.274 276.365 559.12 276.365C556.996 276.365 555.248 274.647 555.248 272.493C555.248 270.338 556.965 268.621 559.12 268.621C561.274 268.621 562.992 270.338 562.992 272.493Z" fill="#F8AB1D"/>
<path d="M406.275 132.575C408.362 132.575 410.053 130.884 410.053 128.797C410.053 126.711 408.362 125.019 406.275 125.019C404.189 125.019 402.497 126.711 402.497 128.797C402.497 130.884 404.189 132.575 406.275 132.575Z" fill="#F8AB1D"/>
<path d="M522.242 170.233C522.242 172.45 520.462 174.23 518.245 174.23C516.028 174.23 514.249 172.45 514.249 170.233C514.249 168.016 516.028 166.237 518.245 166.237C520.462 166.237 522.242 168.016 522.242 170.233Z" fill="#F8AB1D"/>
<path d="M361.904 247.577C361.904 250.762 359.344 253.322 356.159 253.322C352.974 253.322 350.414 250.762 350.414 247.577C350.414 244.392 352.974 241.832 356.159 241.832C359.313 241.832 361.904 244.392 361.904 247.577Z" fill="#F8AB1D"/>
<path d="M364.807 323.608C364.807 325.419 363.34 326.855 361.56 326.855C359.749 326.855 358.312 325.388 358.312 323.608C358.312 321.797 359.78 320.361 361.56 320.361C363.34 320.329 364.807 321.797 364.807 323.608Z" fill="#F8AB1D"/>
<path d="M283.623 377.47C286.916 377.47 289.586 374.8 289.586 371.506C289.586 368.213 286.916 365.542 283.623 365.542C280.329 365.542 277.659 368.213 277.659 371.506C277.659 374.8 280.329 377.47 283.623 377.47Z" fill="#F8AB1D"/>
<path d="M242.719 205.641C242.719 209.138 239.877 211.98 236.38 211.98C232.883 211.98 230.041 209.138 230.041 205.641C230.041 202.144 232.883 199.303 236.38 199.303C239.877 199.303 242.719 202.144 242.719 205.641Z" fill="#F8AB1D"/>
<path d="M162.908 201.957C162.908 204.736 160.66 206.984 157.881 206.984C155.102 206.984 152.854 204.736 152.854 201.957C152.854 199.178 155.102 196.93 157.881 196.93C160.66 196.93 162.908 199.178 162.908 201.957Z" fill="#F8AB1D"/>
<path d="M80.8809 305.405C80.8809 308.371 78.4766 310.744 75.5415 310.744C72.5752 310.744 70.2021 308.34 70.2021 305.405C70.2021 302.438 72.6064 300.065 75.5415 300.065C78.5079 300.065 80.8809 302.47 80.8809 305.405Z" fill="#F8AB1D"/>
<path d="M50.4685 252.01C50.4685 254.165 48.7199 255.913 46.5654 255.913C44.4109 255.913 42.6624 254.165 42.6624 252.01C42.6624 249.856 44.4109 248.107 46.5654 248.107C48.7199 248.076 50.4685 249.825 50.4685 252.01Z" fill="#F8AB1D"/>
<path d="M86.8452 203.487C86.8452 205.141 85.5026 206.453 83.8789 206.453C82.224 206.453 80.9125 205.11 80.9125 203.487C80.9125 201.832 82.2552 200.52 83.8789 200.52C85.5026 200.489 86.8452 201.832 86.8452 203.487Z" fill="#F8AB1D"/>
<path d="M258.862 450.693C258.862 455.22 255.177 458.905 250.65 458.905C246.122 458.905 242.438 455.22 242.438 450.693C242.438 446.165 246.122 442.481 250.65 442.481C255.177 442.481 258.862 446.165 258.862 450.693Z" fill="#F8AB1D"/>
<path d="M318.564 474.83C320.53 474.83 322.124 473.236 322.124 471.27C322.124 469.304 320.53 467.71 318.564 467.71C316.598 467.71 315.004 469.304 315.004 471.27C315.004 473.236 316.598 474.83 318.564 474.83Z" fill="#F8AB1D"/>
<path d="M199.285 461.122C199.285 462.34 198.286 463.308 197.1 463.308C195.882 463.308 194.914 462.308 194.914 461.122C194.914 459.904 195.913 458.936 197.1 458.936C198.286 458.936 199.285 459.904 199.285 461.122Z" fill="#F8AB1D"/>
<path d="M86.9074 271.776C86.9074 274.899 84.3782 277.459 81.2245 277.459C78.1021 277.459 75.5416 274.93 75.5416 271.776C75.5416 268.622 78.0708 266.093 81.2245 266.093C84.347 266.093 86.9074 268.622 86.9074 271.776Z" fill="#F8AB1D"/>
<path d="M412.113 170.451C412.113 173.48 409.646 175.947 406.617 175.947C403.588 175.947 401.121 173.48 401.121 170.451C401.121 167.423 403.588 164.956 406.617 164.956C409.646 164.956 412.113 167.423 412.113 170.451Z" fill="#F8AB1D"/>
<path d="M589.095 216.663C589.095 219.099 587.128 221.066 584.693 221.066C582.257 221.066 580.29 219.099 580.29 216.663C580.29 214.227 582.257 212.26 584.693 212.26C587.128 212.26 589.095 214.227 589.095 216.663Z" fill="#F8AB1D"/>
<path d="M159.068 56.4803C159.068 60.5083 155.79 63.7869 151.762 63.7869C147.734 63.7869 144.455 60.5083 144.455 56.4803C144.455 52.4524 147.734 49.1738 151.762 49.1738C155.821 49.1738 159.068 52.4524 159.068 56.4803Z" fill="#F8AB1D"/>
<path d="M48.3452 125.924C48.3452 127.485 47.065 128.766 45.5038 128.766C43.9426 128.766 42.6624 127.485 42.6624 125.924C42.6624 124.363 43.9426 123.083 45.5038 123.083C47.065 123.083 48.3452 124.363 48.3452 125.924Z" fill="#F8AB1D"/>
<path d="M351.349 30.5956C351.349 34.9983 347.789 38.5579 343.387 38.5579C338.984 38.5579 335.424 34.9983 335.424 30.5956C335.424 26.1929 338.984 22.6333 343.387 22.6333C347.789 22.6333 351.349 26.1929 351.349 30.5956Z" fill="#F8AB1D"/>
<path d="M361.217 56.0446C361.217 57.4497 360.093 58.5738 358.688 58.5738C357.282 58.5738 356.158 57.4497 356.158 56.0446C356.158 54.6395 357.282 53.5154 358.688 53.5154C360.093 53.5154 361.217 54.6395 361.217 56.0446Z" fill="#F8AB1D"/>
<path d="M306.23 65.5362C306.23 68.4089 303.919 70.7195 301.047 70.7195C298.174 70.7195 295.863 68.4089 295.863 65.5362C295.863 62.6635 298.174 60.3529 301.047 60.3529C303.888 60.3529 306.23 62.6635 306.23 65.5362Z" fill="#F8AB1D"/>
<path d="M464.101 61.0076C464.101 63.5056 462.072 65.5352 459.574 65.5352C457.076 65.5352 455.046 63.5056 455.046 61.0076C455.046 58.5096 457.076 56.48 459.574 56.48C462.072 56.48 464.101 58.5096 464.101 61.0076Z" fill="#F8AB1D"/>
<path d="M564.365 144.754C562.335 148.282 557.808 149.5 554.279 147.47C550.751 145.441 549.533 140.913 551.563 137.385C553.592 133.856 558.12 132.638 561.648 134.668C565.208 136.698 566.395 141.225 564.365 144.754Z" fill="#F8AB1D"/>
<path d="M584.692 160.335C584.692 161.553 583.693 162.552 582.475 162.552C581.258 162.552 580.259 161.553 580.259 160.335C580.259 159.117 581.258 158.118 582.475 158.118C583.693 158.149 584.692 159.148 584.692 160.335Z" fill="#F8AB1D"/>
<g opacity="0.25">
<path opacity="0.25" d="M469.316 271.964C322.154 286.39 149.013 266.187 69.1716 246.953C37.8532 239.396 18.2753 222.16 6.00397 203.956C9.68848 229.498 33.7003 371.82 121.941 444.324C219.081 524.166 329.711 518.389 422.042 474.144C514.374 429.898 580.664 351.306 594.184 232.839L595.527 229.654C583.037 245.829 551.094 263.939 469.316 271.964Z" fill="#D8D8D8"/>
</g>
<path d="M598.025 208.859C597.4 207.922 596.713 207.017 596.057 206.143C594.933 208.953 593.466 211.638 591.748 214.167C593.591 219.288 594.028 224.909 590.812 228.406C583.724 236.118 573.607 240.989 564.146 245.142C555.028 249.139 545.567 252.855 535.919 255.321C522.898 258.662 509.409 260.38 496.076 261.879C477.279 264.002 458.356 265.345 439.465 266.344C393.471 268.811 347.384 269.373 301.359 268.592C258.237 267.874 214.991 266.188 172.119 261.41C163.939 260.505 155.789 259.443 147.67 258.163C129.591 255.321 111.981 252.699 94.245 248.202C72.2628 242.613 51.0612 236.399 33.6378 224.784C26.4249 219.975 22.1159 215.073 20.461 209.765C18.2128 208.235 15.3401 206.205 14.4346 205.362C10.0631 201.24 8.15843 195.027 5.94147 189.593C5.87903 189.469 5.8478 189.312 5.78535 189.188C5.50433 189.531 5.16086 189.812 4.87983 190.187C-3.92554 201.709 7.06557 215.791 15.3089 224.128C28.9229 237.929 48.3446 244.955 66.6111 250.232C87.2819 256.227 108.577 259.943 129.841 263.19C137.897 264.408 145.953 265.563 154.009 266.812C195.07 273.244 236.911 275.243 278.408 276.554C326.182 278.053 374.018 277.959 421.792 276.148C458.731 274.743 496.388 273.213 532.796 266.219C551.188 262.69 569.673 256.071 585.722 246.454C592.591 242.332 600.398 236.805 602.958 228.78C605.081 221.63 601.99 214.761 598.025 208.859Z" fill="#D8D8D8"/>
</svg>
