<svg width="51" height="67" viewBox="0 0 51 67" fill="none" xmlns="http://www.w3.org/2000/svg">
<path d="M0 -0.00012207V60.3166H7.7828C8.59403 59.1639 21.5643 40.7324 22.3756 39.5796L23.3484 19.7897L22.3756 -0.00012207C21.7445 -0.00012207 0.631056 -0.00012207 0 -0.00012207Z" fill="#F4D844"/>
<path d="M44.7515 -0.000976562C44.1205 -0.000976562 23.007 -0.000976562 22.376 -0.000976562V39.5787C23.619 37.8123 43.5085 9.54827 44.7515 7.78183C44.7515 6.84024 44.7515 0.94684 44.7515 -0.000976562Z" fill="#ECBD2C"/>
<path d="M7.78223 7.78223V66.1533H29.1849L31.1306 36.9677L29.1849 7.78223C28.5813 7.78223 8.38565 7.78223 7.78223 7.78223Z" fill="#F9F9F9"/>
<path d="M29.1855 7.78223V66.1533H37.7519L40.5571 55.6897L50.5883 53.3393C50.5883 53.3393 50.5883 10.3119 50.5883 7.78223C49.9846 7.78223 29.789 7.78223 29.1855 7.78223Z" fill="#E2DFF4"/>
<path d="M37.752 66.1529C39.3129 64.5946 49.0239 54.9004 50.5883 53.3389C47.11 53.3389 39.8013 53.3389 37.752 53.3389V66.1529Z" fill="#BEBCDD"/>
<path d="M29.1853 19.4559C25.5173 19.4559 17.7022 19.4559 15.5654 19.4559C15.5654 18.0949 15.5654 16.9254 15.5654 15.5645H29.1853L31.131 17.5102L29.1853 19.4559Z" fill="#4E6BA6"/>
<path d="M29.1853 27.2381C25.5173 27.2381 17.7022 27.2381 15.5654 27.2381C15.5654 25.8771 15.5654 24.7076 15.5654 23.3467H29.1853L31.131 25.2924L29.1853 27.2381Z" fill="#A7CAFC"/>
<path d="M29.1853 35.0213C25.5173 35.0213 17.7022 35.0213 15.5654 35.0213C15.5654 33.6603 15.5654 32.4908 15.5654 31.1299H29.1853L31.131 33.0756L29.1853 35.0213Z" fill="#A7CAFC"/>
<path d="M29.1853 42.8045C25.5173 42.8045 17.7022 42.8045 15.5654 42.8045C15.5654 41.4435 15.5654 40.274 15.5654 38.9131H29.1853L31.131 40.8588L29.1853 42.8045Z" fill="#A7CAFC"/>
<path d="M42.8055 19.4559C39.1374 19.4559 31.3223 19.4559 29.1855 19.4559C29.1855 18.0949 29.1855 16.9254 29.1855 15.5645H42.8055V19.4559Z" fill="#28487A"/>
<path d="M42.8055 27.2381C39.1374 27.2381 31.3223 27.2381 29.1855 27.2381C29.1855 25.8771 29.1855 24.7076 29.1855 23.3467H42.8055V27.2381Z" fill="#8493FB"/>
<path d="M42.8055 35.0213C39.1374 35.0213 31.3223 35.0213 29.1855 35.0213C29.1855 33.6603 29.1855 32.4908 29.1855 31.1299H42.8055V35.0213Z" fill="#8493FB"/>
<path d="M42.8055 42.8045C39.1374 42.8045 31.3223 42.8045 29.1855 42.8045C29.1855 41.4435 29.1855 40.274 29.1855 38.9131H42.8055V42.8045Z" fill="#8493FB"/>
<path d="M29.1853 50.5877C25.5173 50.5877 17.7022 50.5877 15.5654 50.5877C15.5654 49.2267 15.5654 48.0572 15.5654 46.6963H29.1853V50.5877Z" fill="#DD4E4E"/>
</svg>
